<?xml version="1.0" encoding="utf-8"?>
<!-- Generator: Adobe Illustrator 28.3.0, SVG Export Plug-In . SVG Version: 6.00 Build 0)  -->
<svg version="1.1" id="Layer_1" xmlns="http://www.w3.org/2000/svg" xmlns:xlink="http://www.w3.org/1999/xlink" x="0px" y="0px"
	 viewBox="0 0 100 100" style="enable-background:new 0 0 100 100;" xml:space="preserve">
<style type="text/css">
	.st0{fill-rule:evenodd;clip-rule:evenodd;fill:#FDFDFD;}
	.st1{fill:#3E3A94;}
</style>
<path id="Rectangle-Copy-6" class="st0" d="M9.2,0h81.6c5.1,0,9.2,4.1,9.2,9.2v81.6c0,5.1-4.1,9.2-9.2,9.2H9.2
	C4.1,100,0,95.9,0,90.8V9.2C0,4.1,4.1,0,9.2,0z"/>
<g>
	<path class="st1" d="M88.2,46.6h-3.7c-0.2,0-0.3-0.1-0.3-0.3v-3.6c0-0.3-0.2-0.5-0.5-0.5H82c-0.3,0-0.5,0.2-0.5,0.5v3.6
		c0,0.2-0.1,0.3-0.3,0.3h-3.7c-0.3,0-0.5,0.2-0.5,0.5v1.6c0,0.3,0.2,0.5,0.5,0.5h3.7c0.2,0,0.3,0.1,0.3,0.3V53
		c0,0.3,0.2,0.5,0.5,0.5h1.7c0.3,0,0.5-0.2,0.5-0.5v-3.6c0-0.2,0.1-0.3,0.3-0.3h3.7c0.3,0,0.5-0.2,0.5-0.5V47
		C88.7,46.8,88.4,46.6,88.2,46.6z"/>
	<g>
		<path class="st1" d="M59.2,57.1l1.9-4c0,0,0-0.1,0-0.1V42.5c0-0.2-0.2-0.3-0.3-0.3H55c-0.1,0-0.2,0.1-0.2,0.2l-1,2.4
			c-0.1,0.2,0.1,0.4,0.2,0.4h3.5c0.2,0,0.3,0.2,0.3,0.3v7.5c0,1-0.7,1.9-1.9,2c-1.2,0.1-2.4-0.8-3.1-1.4l0,0
			c-0.1-0.1-0.4-0.1-0.4,0.1l-1,2.1c-0.1,0.1,0,0.2,0,0.3l0,0c1.5,1.3,2.5,2,4.5,2C57.3,58.1,58.2,57.8,59.2,57.1
			C59.1,57.2,59.2,57.1,59.2,57.1z"/>
		<path class="st1" d="M22.5,44.9l0.8-2.2c0.1-0.2-0.1-0.5-0.3-0.5H12.8c-0.1,0-0.3,0.1-0.3,0.2l-1.2,2.8c0,0,0,0.1,0,0.1v12.3
			c0,0.4,0.2,0.5,0.3,0.5h2.7c0.2,0,0.3-0.2,0.3-0.3V52c0-0.2,0.2-0.3,0.3-0.3h4.5c0.1,0,0.3-0.1,0.3-0.2l0.9-2.2
			c0.1-0.2-0.1-0.5-0.3-0.5h-5.4c-0.2,0-0.3-0.2-0.3-0.3v-2.9c0-0.2,0.2-0.3,0.3-0.3h7.1C22.3,45.1,22.4,45,22.5,44.9z"/>
		<path class="st1" d="M50.7,44.9l1-2.2c0.1-0.2-0.1-0.5-0.3-0.5h-9.5c-0.1,0-0.3,0.1-0.3,0.2l-1.2,3.1c0,0,0,0.1,0,0.1v12.2
			c0,0.2,0.2,0.3,0.3,0.3h7c0.1,0,0.3-0.1,0.3-0.2l0.9-2.2c0.1-0.2-0.1-0.5-0.3-0.5h-4.7c-0.2,0-0.3-0.2-0.3-0.3v-2.9
			c0-0.2,0.2-0.3,0.3-0.3h3.9c0.1,0,0.3-0.1,0.3-0.2l0.9-2.2c0.1-0.2-0.1-0.5-0.3-0.5h-4.9c-0.2,0-0.3-0.2-0.3-0.3v-2.9
			c0-0.2,0.2-0.3,0.3-0.3h6.5C50.5,45.1,50.7,45,50.7,44.9z"/>
		<path class="st1" d="M37.3,57l-2.6-3.9c-0.1-0.2-0.1-0.4,0.1-0.5c1.7-1,2.7-2.7,2.7-4.9c0-3.5-2.4-5.5-6.5-5.5h-5.1
			c-0.1,0-0.3,0.1-0.3,0.2l-1,2.6c0,0,0,0.1,0,0.1v12.6c0,0.2,0.2,0.3,0.3,0.3h2.5c0.2,0,0.3-0.2,0.3-0.3v-3.9
			c0-0.2,0.2-0.3,0.3-0.3H31c0.1,0,0.2,0,0.3,0c0.1,0,0.2,0.1,0.3,0.2l2.6,4.3c0.1,0.1,0.2,0.2,0.3,0.2H37c0.2,0,0.3-0.2,0.3-0.3
			v-0.5C37.3,57.2,37.3,57.1,37.3,57z M31,50.5h-2.8c-0.2,0-0.3-0.2-0.3-0.3v-4.8c0-0.2,0.2-0.3,0.3-0.3H31c2.3,0,3.4,0.9,3.4,2.7
			C34.4,49.6,33.2,50.5,31,50.5z"/>
		<path class="st1" d="M77.3,54.9l-5.5-12.5c-0.1-0.1-0.2-0.2-0.3-0.2h0l0,0h-2.6c-0.1,0-0.3,0.1-0.3,0.2l-6.7,15.2
			c-0.1,0.2,0.1,0.5,0.3,0.5h2.6c0.1,0,0.3-0.1,0.3-0.2l1.3-3c0.1-0.1,0.2-0.2,0.3-0.2h6.9c0.1,0,0.2,0.1,0.3,0.2l1.2,3l0.1,0.2
			l0.1,0.1c0,0.1,0.1,0.1,0.1,0.1l0,0l0,0c0,0,0.1,0,0.1,0h0.6c0.1,0,0.3-0.1,0.3-0.2l1.1-2.7C77.4,55.1,77.4,55,77.3,54.9z
			 M71.9,51.7h-3.8c-0.2,0-0.4-0.3-0.3-0.5l1.9-4.5c0.1-0.3,0.5-0.3,0.6,0l1.9,4.5C72.4,51.5,72.2,51.7,71.9,51.7z"/>
	</g>
</g>
</svg>
