<?xml version="1.0" encoding="utf-8"?>
<!-- Generator: Adobe Illustrator 28.3.0, SVG Export Plug-In . SVG Version: 6.00 Build 0)  -->
<svg version="1.1" id="Layer_1" xmlns="http://www.w3.org/2000/svg" xmlns:xlink="http://www.w3.org/1999/xlink" x="0px" y="0px"
	 viewBox="0 0 100 100" style="enable-background:new 0 0 100 100;" xml:space="preserve">
<style type="text/css">
	.st0{fill-rule:evenodd;clip-rule:evenodd;fill:#FDFDFD;}
	.st1{fill:#3E3A93;}
</style>
<path id="Rectangle-Copy-6" class="st0" d="M9.2,0h81.6c5.1,0,9.2,4.1,9.2,9.2v81.6c0,5.1-4.1,9.2-9.2,9.2H9.2
	C4.1,100,0,95.9,0,90.8V9.2C0,4.1,4.1,0,9.2,0z"/>
<g>
	<path class="st1" d="M67,58l2.1-4.6c0,0,0-0.1,0-0.1v-12c0-0.2-0.2-0.4-0.4-0.4h-6.5c-0.1,0-0.2,0.1-0.3,0.2l-1.1,2.7
		c-0.1,0.2,0.1,0.4,0.3,0.4h4c0.2,0,0.4,0.2,0.4,0.4v8.6c0,1.1-0.8,2.2-2.1,2.3c-1.4,0.1-2.8-0.9-3.6-1.6l0,0
		c-0.1-0.2-0.4-0.1-0.5,0.1l-1.2,2.4c-0.1,0.1,0,0.2,0,0.3l0,0c1.7,1.5,2.9,2.3,5.2,2.3C64.9,59.1,65.9,58.8,67,58
		C67,58.1,67,58.1,67,58z"/>
	<path class="st1" d="M24.9,44l1-2.6c0.1-0.3-0.1-0.6-0.4-0.6H13.9c-0.2,0-0.3,0.1-0.4,0.3l-1.3,3.3c0,0,0,0.1,0,0.1v14
		c0,0.4,0.2,0.6,0.4,0.6h3.1c0.2,0,0.4-0.2,0.4-0.4v-6.6c0-0.2,0.2-0.4,0.4-0.4h5.1c0.2,0,0.3-0.1,0.4-0.3l1-2.5
		c0.1-0.3-0.1-0.5-0.4-0.5h-6.2c-0.2,0-0.4-0.2-0.4-0.4v-3.4c0-0.2,0.2-0.4,0.4-0.4h8.1C24.7,44.2,24.9,44.1,24.9,44z"/>
	<path class="st1" d="M57.3,44l1.1-2.6c0.1-0.3-0.1-0.6-0.4-0.6H47.2c-0.2,0-0.3,0.1-0.4,0.3l-1.4,3.5c0,0,0,0.1,0,0.1v13.9
		c0,0.2,0.2,0.4,0.4,0.4h8c0.2,0,0.3-0.1,0.4-0.2l1.1-2.6c0.1-0.3-0.1-0.6-0.4-0.6h-5.3c-0.2,0-0.4-0.2-0.4-0.4V52
		c0-0.2,0.2-0.4,0.4-0.4H54c0.2,0,0.3-0.1,0.4-0.2l1.1-2.5c0.1-0.3-0.1-0.6-0.4-0.6h-5.6c-0.2,0-0.4-0.2-0.4-0.4v-3.3
		c0-0.2,0.2-0.4,0.4-0.4H57C57.1,44.2,57.2,44.2,57.3,44z"/>
	<path class="st1" d="M41.9,57.9l-3-4.5c-0.1-0.2-0.1-0.5,0.1-0.6c2-1.1,3.1-3.1,3.1-5.7c0-4-2.7-6.4-7.4-6.4h-5.8
		c-0.2,0-0.3,0.1-0.4,0.3l-1.1,3c0,0,0,0.1,0,0.1v14.5c0,0.2,0.2,0.4,0.4,0.4h2.9c0.2,0,0.4-0.2,0.4-0.4v-4.5c0-0.2,0.2-0.4,0.4-0.4
		h3.2c0.1,0,0.3,0,0.4,0c0.1,0,0.3,0.1,0.3,0.2l3,4.9c0.1,0.1,0.2,0.2,0.3,0.2h2.9c0.2,0,0.4-0.2,0.4-0.4v-0.6
		C42,58.1,42,58,41.9,57.9z M34.7,50.5h-3.2c-0.2,0-0.4-0.2-0.4-0.4v-5.5c0-0.2,0.2-0.4,0.4-0.4h3.2c2.6,0,3.9,1,3.9,3.1
		C38.6,49.4,37.3,50.5,34.7,50.5z"/>
	<path class="st1" d="M87.8,55.5l-6.4-14.3c-0.1-0.1-0.2-0.2-0.4-0.2h0l0,0h-3c-0.2,0-0.3,0.1-0.4,0.2l-7.7,17.5
		c-0.1,0.3,0.1,0.6,0.4,0.6h3c0.2,0,0.3-0.1,0.4-0.2l1.5-3.5c0.1-0.1,0.2-0.2,0.4-0.2h7.9c0.1,0,0.2,0.1,0.3,0.2l1.4,3.4l0.1,0.2
		l0.1,0.1c0,0.1,0.1,0.1,0.1,0.1l0,0l0,0c0,0,0.1,0,0.1,0h0.7c0.2,0,0.3-0.1,0.4-0.2l1.3-3.1C87.8,55.7,87.8,55.6,87.8,55.5z
		 M81.6,51.8h-4.4c-0.3,0-0.5-0.3-0.4-0.6l2.2-5.1c0.1-0.3,0.6-0.3,0.7,0l2.2,5.1C82.1,51.5,81.9,51.8,81.6,51.8z"/>
</g>
</svg>
