<?xml version="1.0" encoding="utf-8"?>
<!-- Generator: Adobe Illustrator 27.7.0, SVG Export Plug-In . SVG Version: 6.00 Build 0)  -->
<svg version="1.1" id="Layer_1" xmlns="http://www.w3.org/2000/svg" xmlns:xlink="http://www.w3.org/1999/xlink" x="0px" y="0px"
	 viewBox="0 0 100 100" style="enable-background:new 0 0 100 100;" xml:space="preserve">
<style type="text/css">
	.st0{fill-rule:evenodd;clip-rule:evenodd;fill:url(#Rectangle_00000098901943726024420510000011279949189310786193_);}
	.st1{fill:#FDFDFD;}
</style>
<linearGradient id="Rectangle_00000092431238096317377740000002597404411614341512_" gradientUnits="userSpaceOnUse" x1="-443.2742" y1="545.2752" x2="-444.5103" y2="546.5096" gradientTransform="matrix(100 0 0 -100 44451 54651)">
	<stop  offset="0" style="stop-color:#0A98E7"/>
	<stop  offset="1" style="stop-color:#3E3A94"/>
</linearGradient>
<path id="Rectangle" style="fill-rule:evenodd;clip-rule:evenodd;fill:url(#Rectangle_00000092431238096317377740000002597404411614341512_);" d="
	M9.2,0h81.6c5.1,0,9.2,4.1,9.2,9.2v81.6c0,5.1-4.1,9.2-9.2,9.2H9.2C4.1,100,0,95.9,0,90.8V9.2C0,4.1,4.1,0,9.2,0z"/>
<path id="Path" class="st1" d="M72.9,26.9l3.7-9.8c0.5-1.1-0.3-2.1-1.4-2.1H30.6c-0.6,0-1.1,0.4-1.4,1l-5.1,12.5
	c0,0-0.1,0.3-0.1,0.5v53.8c0,1.6,0.7,2.3,1.5,2.3h11.8c0.8,0,1.5-0.7,1.5-1.5V58.1c0-0.8,0.7-1.5,1.5-1.5h19.7c0.6,0,1.2-0.4,1.4-1
	l4-9.7c0.4-1-0.3-2.1-1.4-2.1H40.4c-0.8,0-1.5-0.7-1.5-1.5V29.4c0-0.8,0.7-1.5,1.5-1.5h31.1C72.1,27.9,72.6,27.5,72.9,26.9z"/>
</svg>
