<?xml version="1.0" encoding="UTF-8" standalone="no"?>
<!-- Created with Inkscape (http://www.inkscape.org/) -->

<svg
   version="1.1"
   id="svg1"
   width="780.85333"
   height="780.58667"
   viewBox="0 0 780.85333 780.58667"
   sodipodi:docname="BV_Logo2022_Blue_RGB.eps"
   xmlns:inkscape="http://www.inkscape.org/namespaces/inkscape"
   xmlns:sodipodi="http://sodipodi.sourceforge.net/DTD/sodipodi-0.dtd"
   xmlns="http://www.w3.org/2000/svg"
   xmlns:svg="http://www.w3.org/2000/svg">
  <defs
     id="defs1" />
  <sodipodi:namedview
     id="namedview1"
     pagecolor="#ffffff"
     bordercolor="#000000"
     borderopacity="0.25"
     inkscape:showpageshadow="2"
     inkscape:pageopacity="0.0"
     inkscape:pagecheckerboard="0"
     inkscape:deskcolor="#d1d1d1">
    <inkscape:page
       x="0"
       y="0"
       inkscape:label="1"
       id="page1"
       width="780.85333"
       height="780.58667"
       margin="0"
       bleed="0" />
  </sodipodi:namedview>
  <g
     id="g1"
     inkscape:groupmode="layer"
     inkscape:label="1">
    <g
       id="group-R5">
      <path
         id="path2"
         d="m 353.859,385.02 c 88.161,0 151.684,66.089 151.684,150.371 0,82.961 -66.145,149.05 -150.371,149.05 H 124.418 V 385.02 Z m -34.992,401.832 c 79.074,0 142.594,60.937 142.594,137.39 0,72.61 -63.52,129.618 -142.594,129.618 H 124.418 V 786.852 Z M 0,1173.12 h 322.758 c 147.793,0 264.433,-104.97 264.433,-230.698 0,-93.371 -62.211,-177.59 -146.48,-197.031 C 549.621,731.102 632.586,635.16 632.586,518.52 632.586,375.93 512.008,265.75 361.637,265.75 H 0 v 907.37"
         style="fill:#154051;fill-opacity:1;fill-rule:nonzero;stroke:none"
         transform="matrix(0.13333333,0,0,-0.13333333,0,780.58667)" />
      <path
         id="path3"
         d="M 1302.74,898.34 941.051,35 H 812.746 L 924.188,287.77 668.84,898.34 H 797.195 L 985.133,426.469 1174.38,898.34 h 128.36"
         style="fill:#154051;fill-opacity:1;fill-rule:nonzero;stroke:none"
         transform="matrix(0.13333333,0,0,-0.13333333,0,780.58667)" />
      <path
         id="path4"
         d="m 1838.17,478.332 v 217.777 c -33.73,60.942 -110.18,103.711 -187.94,103.711 -121.89,0 -215.2,-89.468 -215.2,-211.308 0,-121.84 93.31,-212.582 215.2,-212.582 77.76,0 154.21,42.769 187.94,102.402 z M 1958.7,898.34 V 287.77 C 1958.7,114.07 1829.08,0 1650.23,0 1538.74,0 1422.05,40.1992 1367.62,107.609 l 60.94,81.641 c 47.92,-51.852 129.62,-81.641 219.04,-81.641 108.92,0 190.57,75.18 190.57,181.473 v 77.758 c -35,-58.32 -123.16,-102.399 -211.32,-102.399 -174.96,0 -308.46,141.329 -308.46,324.071 0,181.468 133.5,322.797 308.46,322.797 89.48,0 177.59,-44.079 211.32,-103.707 v 90.738 h 120.53"
         style="fill:#154051;fill-opacity:1;fill-rule:nonzero;stroke:none"
         transform="matrix(0.13333333,0,0,-0.13333333,0,780.58667)" />
      <path
         id="path5"
         d="m 2589.97,478.332 v 217.777 c -33.73,60.942 -110.18,103.711 -187.94,103.711 -121.89,0 -215.2,-89.468 -215.2,-211.308 0,-121.84 93.31,-212.582 215.2,-212.582 77.76,0 154.21,42.769 187.94,102.402 z M 2710.5,898.34 V 287.77 C 2710.5,114.07 2580.88,0 2402.03,0 2290.54,0 2173.85,40.1992 2119.42,107.609 l 60.94,81.641 c 47.97,-51.852 129.62,-81.641 219.05,-81.641 108.91,0 190.56,75.18 190.56,181.473 v 77.758 c -34.99,-58.32 -123.16,-102.399 -211.32,-102.399 -174.96,0 -308.46,141.329 -308.46,324.071 0,181.468 133.5,322.797 308.46,322.797 89.48,0 177.59,-44.079 211.32,-103.707 v 90.738 h 120.53"
         style="fill:#154051;fill-opacity:1;fill-rule:nonzero;stroke:none"
         transform="matrix(0.13333333,0,0,-0.13333333,0,780.58667)" />
      <path
         id="path6"
         d="m 2861.07,1173.12 263.17,-711.651 263.13,711.651 H 3518.3 L 3176.1,265.75 h -105.02 l -343.51,907.37 h 133.5"
         style="fill:#154051;fill-opacity:1;fill-rule:nonzero;stroke:none"
         transform="matrix(0.13333333,0,0,-0.13333333,0,780.58667)" />
      <path
         id="path7"
         d="m 3971.47,650.762 c -7.78,94.629 -84.27,160.73 -184.1,160.73 -99.82,0 -173.7,-63.523 -195.71,-160.73 z M 4092,560.031 h -505.54 c 11.66,-121.89 94.62,-199.652 211.31,-199.652 80.34,0 151.64,36.301 184.05,93.312 l 95.94,-62.211 c -47.97,-85.539 -154.26,-138.699 -283.88,-138.699 -180.21,0 -324.06,142.59 -324.06,331.84 0,182.789 141.28,326.688 322.75,326.688 169.81,0 302,-132.239 302,-302.047 0,-14.242 -1.26,-33.68 -2.57,-49.231"
         style="fill:#154051;fill-opacity:1;fill-rule:nonzero;stroke:none"
         transform="matrix(0.13333333,0,0,-0.13333333,0,780.58667)" />
      <path
         id="path8"
         d="m 4186.36,343.512 49.23,89.48 c 49.28,-47.972 140.02,-80.39 212.63,-80.39 73.87,0 123.1,37.57 123.1,85.539 0,141.328 -365.52,46.699 -365.52,279.98 0,115.379 97.2,193.188 239.79,193.188 85.59,0 175.01,-27.258 229.45,-80.379 l -51.86,-90.739 c -46.66,45.34 -132.19,69.981 -189.25,69.981 -66.1,0 -108.87,-32.41 -108.87,-81.641 0,-128.359 366.84,-46.66 366.84,-286.5 0,-108.871 -98.51,-189.25 -242.42,-189.25 -98.51,0 -202.23,36.301 -263.12,90.731"
         style="fill:#154051;fill-opacity:1;fill-rule:nonzero;stroke:none"
         transform="matrix(0.13333333,0,0,-0.13333333,0,780.58667)" />
      <path
         id="path9"
         d="m 5175.51,270.949 c -18.13,-7.769 -44.03,-12.969 -68.67,-12.969 -133.51,0 -228.13,85.532 -228.13,235.899 V 784.27 h -123.15 v 114.07 h 123.15 v 171.12 h 119.22 V 898.34 h 171.12 V 784.27 H 4997.93 V 499.082 c 0,-81.652 54.48,-129.621 124.46,-129.621 14.24,0 33.68,2.578 46.66,6.469 l 6.46,-104.981"
         style="fill:#154051;fill-opacity:1;fill-rule:nonzero;stroke:none"
         transform="matrix(0.13333333,0,0,-0.13333333,0,780.58667)" />
      <path
         id="path10"
         d="m 5735.83,470.551 v 221.668 c -33.73,62.211 -110.18,106.293 -187.94,106.293 -121.89,0 -215.2,-92.051 -215.2,-216.473 0,-123.148 93.31,-216.457 215.2,-216.457 77.76,0 154.21,44.078 187.94,104.969 z M 5856.36,898.34 V 265.75 h -120.53 v 92.051 c -35,-59.629 -123.16,-105.02 -211.32,-105.02 -174.96,0 -308.46,143.899 -308.46,329.258 0,185.371 133.5,329.27 308.46,329.27 89.48,0 177.59,-45.387 211.32,-105.02 v 92.051 h 120.53"
         style="fill:#154051;fill-opacity:1;fill-rule:nonzero;stroke:none"
         transform="matrix(0.13333333,0,0,-0.13333333,0,780.58667)" />
      <path
         id="path11"
         d="m 2929.19,5854.37 c -342.83,0 -666.22,-74.78 -952.46,-207.26 h 1904.86 c -286.35,132.48 -609.78,207.26 -952.4,207.26"
         style="fill:#154051;fill-opacity:1;fill-rule:nonzero;stroke:none"
         transform="matrix(0.13333333,0,0,-0.13333333,0,780.58667)" />
      <path
         id="path12"
         d="m 2929.19,1984.78 c 342.62,0 666.05,74.77 952.6,207.26 H 1976.73 c 286.24,-132.49 609.63,-207.26 952.46,-207.26"
         style="fill:#154051;fill-opacity:1;fill-rule:nonzero;stroke:none"
         transform="matrix(0.13333333,0,0,-0.13333333,0,780.58667)" />
      <path
         id="path13"
         d="m 1821.75,5033.29 h 2214.84 c -46.24,45.94 -95.5,88.67 -146.73,128.58 h 659.38 c -55.34,60.38 -114.63,117.45 -177.15,171.26 H 3614.4 c -207.12,100.64 -439.56,157.26 -685.2,157.26 -245.6,0 -478.23,-56.62 -685.3,-157.26 h -757.65 c -62.71,-53.81 -121.91,-110.88 -177,-171.26 h 659.28 c -51.63,-39.91 -100.69,-82.64 -146.78,-128.58"
         style="fill:#154051;fill-opacity:1;fill-rule:nonzero;stroke:none"
         transform="matrix(0.13333333,0,0,-0.13333333,0,780.58667)" />
      <path
         id="path14"
         d="m 1418.12,4348.03 3022.06,-0.01 c -17.85,63.16 -39.8,124.63 -65.07,184.42 h 566.35 c -22.75,63.35 -48.17,105.24 -77.1,165.48 h -571.15 c -32.55,57.02 -68.2,111.72 -107.47,164.09 l -2513.18,0.01 c -39.26,-52.38 -74.97,-107.07 -107.31,-164.1 H 993.992 C 964.715,4637.69 939.445,4595.8 916.891,4532.45 H 1483.3 c -25.47,-59.79 -47.48,-121.27 -65.18,-184.42"
         style="fill:#154051;fill-opacity:1;fill-rule:nonzero;stroke:none"
         transform="matrix(0.13333333,0,0,-0.13333333,0,780.58667)" />
      <path
         id="path15"
         d="m 5038.84,4018.33 h -543.37 c -3.66,53.11 -9.34,105.63 -18,157.12 l -3098.73,0.01 c -8.21,-51.53 -14.29,-104 -17.66,-157.12 H 817.621 c -1.828,-32.64 -2.769,-65.58 -2.769,-98.76 0,-33.88 1.039,-67.55 2.918,-100.99 h 543.31 c 3.37,-53.26 9.45,-105.63 17.66,-157.21 l 3098.73,0.03 c 8.66,51.53 14.34,103.91 18,157.17 h 543.37 c 1.68,33.03 2.66,66.32 2.66,99.95 0,33.38 -0.98,66.76 -2.66,99.8"
         style="fill:#154051;fill-opacity:1;fill-rule:nonzero;stroke:none"
         transform="matrix(0.13333333,0,0,-0.13333333,0,780.58667)" />
      <path
         id="path16"
         d="m 4440.18,3491.12 -3022.06,0.02 c 17.7,-63.21 39.71,-124.53 65.18,-184.12 H 916.738 c 22.555,-63.46 47.977,-105.19 77.153,-165.58 H 1564.7 c 32.89,-56.97 68.45,-111.97 107.86,-164.14 l 2513.18,-0.02 c 39.27,52.18 75.17,107.17 107.76,164.15 h 570.91 c 28.88,60.38 54.7,102.12 77.05,165.57 h -566.35 c 25.27,59.59 47.22,120.92 65.07,184.12"
         style="fill:#154051;fill-opacity:1;fill-rule:nonzero;stroke:none"
         transform="matrix(0.13333333,0,0,-0.13333333,0,780.58667)" />
      <path
         id="path17"
         d="M 4036.62,2805.83 H 1821.77 c 46.05,-45.84 94.91,-88.42 146.59,-128.33 h -659.43 c 55.19,-60.29 114.43,-117.46 177.19,-171.21 h 757.31 c 207.22,-100.7 439.7,-157.27 685.74,-157.27 245.84,0 478.53,56.57 685.79,157.27 h 757.21 c 62.61,53.75 122,110.92 177.3,171.21 h -659.48 c 51.33,39.91 100.58,82.49 146.63,128.33"
         style="fill:#154051;fill-opacity:1;fill-rule:nonzero;stroke:none"
         transform="matrix(0.13333333,0,0,-0.13333333,0,780.58667)" />
    </g>
  </g>
</svg>
