<?xml version="1.0" encoding="UTF-8" standalone="no"?>
<!-- Created with Inkscape (http://www.inkscape.org/) -->

<svg
   version="1.1"
   id="svg1"
   width="931.02667"
   height="288.30667"
   viewBox="0 0 931.02667 288.30667"
   sodipodi:docname="BV_Logo2022_Horizontal_Blue_RGB.eps"
   xmlns:inkscape="http://www.inkscape.org/namespaces/inkscape"
   xmlns:sodipodi="http://sodipodi.sourceforge.net/DTD/sodipodi-0.dtd"
   xmlns="http://www.w3.org/2000/svg"
   xmlns:svg="http://www.w3.org/2000/svg">
  <defs
     id="defs1" />
  <sodipodi:namedview
     id="namedview1"
     pagecolor="#ffffff"
     bordercolor="#000000"
     borderopacity="0.25"
     inkscape:showpageshadow="2"
     inkscape:pageopacity="0.0"
     inkscape:pagecheckerboard="0"
     inkscape:deskcolor="#d1d1d1">
    <inkscape:page
       x="0"
       y="0"
       inkscape:label="1"
       id="page1"
       width="931.02667"
       height="288.30667"
       margin="0"
       bleed="0" />
  </sodipodi:namedview>
  <g
     id="g1"
     inkscape:groupmode="layer"
     inkscape:label="1">
    <g
       id="group-R5">
      <path
         id="path2"
         d="m 2931.48,935.559 h -168.92 v 220.451 h 169.89 c 62.01,0 110.71,-48.66 110.71,-109.74 0,-62.04 -46.77,-110.711 -111.68,-110.711 z m -168.92,492.431 h 143.16 c 58.22,0 104.98,-41.97 104.98,-95.43 0,-56.29 -46.76,-101.15 -104.98,-101.15 h -143.16 z m 232.87,-227.11 c 62.04,14.32 107.84,76.32 107.84,145.06 0,92.57 -85.87,169.86 -194.69,169.86 H 2670.96 V 847.75 h 266.25 c 110.71,0 199.48,81.121 199.48,186.1 0,85.88 -61.08,156.51 -141.26,167.03"
         style="fill:#154051;fill-opacity:1;fill-rule:nonzero;stroke:none"
         transform="matrix(0.13333333,0,0,-0.13333333,0,288.30667)" />
      <path
         id="path3"
         d="m 3396.25,966.082 -138.36,347.408 h -94.5 l 187.99,-449.529 -82.04,-186.102 h 94.46 l 266.29,635.631 h -94.5 L 3396.25,966.082"
         style="fill:#154051;fill-opacity:1;fill-rule:nonzero;stroke:none"
         transform="matrix(0.13333333,0,0,-0.13333333,0,288.30667)" />
      <path
         id="path4"
         d="m 4024.29,1004.26 c -24.83,-43.901 -81.11,-75.389 -138.36,-75.389 -89.75,0 -158.45,66.809 -158.45,156.509 0,89.71 68.7,155.58 158.45,155.58 57.25,0 113.53,-31.49 138.36,-76.36 z m 0,242.42 c -24.83,43.91 -89.7,76.36 -155.58,76.36 -128.81,0 -227.1,-104.05 -227.1,-237.66 0,-134.54 98.29,-238.591 227.1,-238.591 64.91,0 129.82,32.449 155.58,75.391 v -57.25 c 0,-78.258 -60.11,-133.61 -140.3,-133.61 -65.84,0 -125.98,21.93 -161.26,60.11 l -44.88,-60.11 c 40.08,-49.629 125.99,-79.218 208.08,-79.218 131.67,0 227.1,83.976 227.1,211.859 v 449.529 h -88.74 v -66.81"
         style="fill:#154051;fill-opacity:1;fill-rule:nonzero;stroke:none"
         transform="matrix(0.13333333,0,0,-0.13333333,0,288.30667)" />
      <path
         id="path5"
         d="m 4577.8,1004.26 c -24.83,-43.901 -81.12,-75.389 -138.37,-75.389 -89.74,0 -158.44,66.809 -158.44,156.509 0,89.71 68.7,155.58 158.44,155.58 57.25,0 113.54,-31.49 138.37,-76.36 z m 0,242.42 c -24.83,43.91 -89.7,76.36 -155.58,76.36 -128.81,0 -227.1,-104.05 -227.1,-237.66 0,-134.54 98.29,-238.591 227.1,-238.591 64.91,0 129.82,32.449 155.58,75.391 v -57.25 c 0,-78.258 -60.11,-133.61 -140.3,-133.61 -65.84,0 -125.95,21.93 -161.27,60.11 l -44.87,-60.11 c 40.08,-49.629 125.99,-79.218 208.07,-79.218 131.68,0 227.11,83.976 227.11,211.859 v 449.529 h -88.74 v -66.81"
         style="fill:#154051;fill-opacity:1;fill-rule:nonzero;stroke:none"
         transform="matrix(0.13333333,0,0,-0.13333333,0,288.30667)" />
      <path
         id="path6"
         d="M 5164.88,1515.8 4971.16,991.852 4777.4,1515.8 h -98.29 l 252.9,-668.05 h 77.33 l 251.94,668.05 h -96.4"
         style="fill:#154051;fill-opacity:1;fill-rule:nonzero;stroke:none"
         transform="matrix(0.13333333,0,0,-0.13333333,0,288.30667)" />
      <path
         id="path7"
         d="m 5315.29,1131.22 c 16.21,71.56 70.59,118.33 144.09,118.33 73.49,0 129.81,-48.67 135.54,-118.33 z m 147.92,191.82 c -133.61,0 -237.63,-105.95 -237.63,-240.52 0,-139.34 105.92,-244.321 238.59,-244.321 95.43,0 173.69,39.153 209.01,102.121 l -70.64,45.801 c -23.86,-41.973 -76.36,-68.699 -135.5,-68.699 -85.92,0 -146.99,57.25 -155.58,146.988 h 372.2 c 0.97,11.45 1.9,25.76 1.9,36.25 0,125.02 -97.33,222.38 -222.35,222.38"
         style="fill:#154051;fill-opacity:1;fill-rule:nonzero;stroke:none"
         transform="matrix(0.13333333,0,0,-0.13333333,0,288.30667)" />
      <path
         id="path8"
         d="m 5855.25,1188.47 c 0,36.24 31.49,60.11 80.15,60.11 42.01,0 104.99,-18.14 139.34,-51.53 l 38.18,66.81 c -40.08,39.11 -105.92,59.18 -168.93,59.18 -104.98,0 -176.55,-57.29 -176.55,-142.23 0,-171.75 269.12,-102.09 269.12,-206.138 0,-35.32 -36.25,-62.973 -90.64,-62.973 -53.46,0 -120.26,23.86 -156.54,59.18 L 5753.13,905 c 44.84,-40.07 121.19,-66.801 193.72,-66.801 105.95,0 178.48,59.18 178.48,139.332 0,176.589 -270.08,116.439 -270.08,210.939"
         style="fill:#154051;fill-opacity:1;fill-rule:nonzero;stroke:none"
         transform="matrix(0.13333333,0,0,-0.13333333,0,288.30667)" />
      <path
         id="path9"
         d="m 6442.28,924.109 c -51.53,0 -91.64,35.321 -91.64,95.431 v 209.97 h 125.99 v 83.98 h -125.99 v 125.99 h -87.77 v -125.99 h -90.67 v -83.98 h 90.67 v -213.8 c 0,-110.71 69.67,-173.679 167.96,-173.679 18.14,0 37.21,3.828 50.56,9.547 l -4.76,77.293 c -9.56,-2.859 -23.87,-4.762 -34.35,-4.762"
         style="fill:#154051;fill-opacity:1;fill-rule:nonzero;stroke:none"
         transform="matrix(0.13333333,0,0,-0.13333333,0,288.30667)" />
      <path
         id="path10"
         d="m 6893.91,998.539 c -24.83,-44.84 -81.11,-77.289 -138.36,-77.289 -89.74,0 -158.44,68.699 -158.44,159.37 0,91.6 68.7,159.37 158.44,159.37 57.25,0 113.53,-32.45 138.36,-78.25 z m 0,314.951 v -67.77 c -24.83,43.9 -89.7,77.32 -155.57,77.32 -128.82,0 -227.11,-105.95 -227.11,-242.42 0,-136.472 98.29,-242.421 227.11,-242.421 64.9,0 129.81,33.422 155.57,77.321 v -67.77 h 88.74 v 465.74 h -88.74"
         style="fill:#154051;fill-opacity:1;fill-rule:nonzero;stroke:none"
         transform="matrix(0.13333333,0,0,-0.13333333,0,288.30667)" />
      <path
         id="path11"
         d="m 1181.45,2162.25 c -191.563,0 -372.266,-41.79 -532.216,-115.82 H 1713.63 c -160,74.03 -340.73,115.82 -532.18,115.82"
         style="fill:#154051;fill-opacity:1;fill-rule:nonzero;stroke:none"
         transform="matrix(0.13333333,0,0,-0.13333333,0,288.30667)" />
      <path
         id="path12"
         d="m 1181.45,0 c 191.45,0 372.18,41.7813 532.29,115.82 H 649.234 C 809.184,41.7813 989.887,0 1181.45,0"
         style="fill:#154051;fill-opacity:1;fill-rule:nonzero;stroke:none"
         transform="matrix(0.13333333,0,0,-0.13333333,0,288.30667)" />
      <path
         id="path13"
         d="M 562.633,1703.44 H 1800.24 c -25.84,25.67 -53.36,49.55 -81.99,71.85 h 368.45 c -30.92,33.75 -64.05,65.64 -98.99,95.7 h -423.38 c -115.73,56.24 -245.62,87.88 -382.88,87.88 -137.23,0 -267.223,-31.64 -382.927,-87.88 H 375.164 c -35.043,-30.06 -68.121,-61.95 -98.906,-95.7 h 368.394 c -28.847,-22.3 -56.261,-46.18 -82.019,-71.85"
         style="fill:#154051;fill-opacity:1;fill-rule:nonzero;stroke:none"
         transform="matrix(0.13333333,0,0,-0.13333333,0,288.30667)" />
      <path
         id="path14"
         d="M 337.094,1320.54 H 2025.76 c -9.97,35.28 -22.24,69.63 -36.36,103.05 h 316.46 c -12.71,35.39 -26.91,58.8 -43.08,92.46 h -319.15 c -18.18,31.86 -38.1,62.42 -60.05,91.69 H 479.273 c -21.941,-29.26 -41.894,-59.83 -59.964,-91.69 H 100.102 C 83.7383,1482.39 69.6211,1458.98 57.0156,1423.59 H 373.516 c -14.231,-33.41 -26.532,-67.77 -36.422,-103.05"
         style="fill:#154051;fill-opacity:1;fill-rule:nonzero;stroke:none"
         transform="matrix(0.13333333,0,0,-0.13333333,0,288.30667)" />
      <path
         id="path15"
         d="m 2056.66,1136.31 c -2.05,29.67 -5.23,59.02 -10.06,87.79 l -1731.51,0.01 c -4.59,-28.79 -7.988,-58.12 -9.867,-87.8 H 1.54688 C 0.527344,1118.08 0,1099.67 0,1081.13 0,1062.2 0.582031,1043.38 1.62891,1024.7 H 305.223 c 1.879,-29.759 5.277,-59.028 9.867,-87.848 l 1731.51,0.019 c 4.83,28.789 8.01,58.059 10.06,87.819 h 303.62 c 0.93,18.46 1.49,37.06 1.49,55.85 0,18.65 -0.56,37.31 -1.49,55.77 h -303.62"
         style="fill:#154051;fill-opacity:1;fill-rule:nonzero;stroke:none"
         transform="matrix(0.13333333,0,0,-0.13333333,0,288.30667)" />
      <path
         id="path16"
         d="M 2025.76,841.719 H 337.094 c 9.89,-35.309 22.187,-69.578 36.422,-102.879 H 56.9336 C 69.5352,703.379 83.7383,680.059 100.043,646.32 H 419 c 18.379,-31.832 38.246,-62.558 60.273,-91.718 L 1883.58,554.59 c 21.95,29.16 42.01,59.89 60.22,91.719 h 319.01 c 16.14,33.742 30.57,57.07 43.05,92.523 H 1989.4 c 14.12,33.297 26.39,67.566 36.36,102.887"
         style="fill:#154051;fill-opacity:1;fill-rule:nonzero;stroke:none"
         transform="matrix(0.13333333,0,0,-0.13333333,0,288.30667)" />
      <path
         id="path17"
         d="M 1800.26,458.789 H 562.648 c 25.727,-25.617 53.032,-49.41 81.907,-71.707 H 276.078 c 30.84,-33.691 63.945,-65.633 99.016,-95.672 h 423.164 c 115.793,-56.269 245.702,-87.879 383.182,-87.879 137.37,0 267.39,31.61 383.21,87.879 h 423.11 c 34.98,30.039 68.17,61.981 99.07,95.672 h -368.51 c 28.69,22.297 56.21,46.09 81.94,71.707"
         style="fill:#154051;fill-opacity:1;fill-rule:nonzero;stroke:none"
         transform="matrix(0.13333333,0,0,-0.13333333,0,288.30667)" />
    </g>
  </g>
</svg>
