<?xml version="1.0" encoding="UTF-8"?>
<svg id="Layer_1" xmlns="http://www.w3.org/2000/svg" version="1.1" viewBox="0 0 510.24 127.56">
  <!-- Generator: Adobe Illustrator 30.4.0, SVG Export Plug-In . SVG Version: 2.1.4 Build 226)  -->
  <defs>
    <style>
      .st0 {
        fill: #fc0;
      }

      .st1 {
        fill: #003a79;
      }
    </style>
  </defs>
  <path class="st1" d="M187.89,64.55c-20.13-37.58-58.14-56.42-58.14-56.42H42.92s-48.6,52.03-2.03,112.74h91.97s38.01-21.31,54.71-55.46l.32-.86"/>
  <path class="st0" d="M45.17,14.99h83.4s36.62,20.34,52.14,49.57c0,0-23.55,37.58-51.07,50H44.64s-38.86-43.36,0-99.03l.54-.54"/>
  <path class="st1" d="M44.64,23.87h31.8v26.87h22.05v-26.87s31.58,0,31.58,0v81.26s-31.58.22-31.58,0v-29.76h-22.05v29.76h-31.8V23.87"/>
  <path class="st1" d="M202.38,31.41h26.97v22.9h18.7v-22.76h26.82v68.27s-26.82.15-26.82,0v-24.63h-18.7v24.63h-26.97V31.41"/>
  <path class="st1" d="M276.38,73.05c0-15.1,12.96-27.52,30.09-27.52s30.46,12.42,30.46,27.52-13.33,27.52-30.46,27.52-30.09-12.42-30.09-27.52ZM306.28,64.51c-4.42.18-6.93,4.37-6.97,8.32-.04,3.95.93,8.92,7.16,9.06,6.23.14,7.62-4.46,7.81-9.06.19-4.6-2.93-8.32-7.81-8.32h-.37"/>
  <path class="st1" d="M371.15,48.15l2.6-2.04h21.56v49.07s-.93,18.59-24.17,19.89c-3.34.19-6.38.71-9.1.54-2.79-.17-5.11-.38-7.26-.65-10.73-1.35-14.86-4.17-14.86-4.17l5.39-13.01s9.57,3.25,13.66,3.16c4.09-.09,13.01-1.02,12.92-4.55,0,0-.19-1.86-2.79-.93-2.6.93-23.79,6.41-30.85-17.75,0,0-5.57-28.44,21.38-32.25,0,0,7.25,0,11.52,2.7ZM360.28,71.1c0,3.44,1.86,7.34,7.06,7.25,5.21-.1,5.11-2.51,5.21-7.99.09-5.48-1.11-6.41-5.02-6.79-3.9-.37-7.25,2.32-7.25,7.16v.37"/>
  <rect class="st1" x="399.4" y="46.48" width="23.23" height="53.34"/>
  <path class="st1" d="M411.11,43.57c5.8,0,11.26-5.31,11.26-11.41s-5.45-11.04-11.26-11.04-10.88,4.94-10.88,11.04,5.08,11.41,10.88,11.41"/>
  <path class="st1" d="M474.58,60.51c1.58,3.81,1.86,39.31,1.86,39.31h-19.8l-3.44-2.32c-3.62,2.6-11.89,2.97-11.89,2.97-11.34,0-15.43-9.48-15.43-9.48-8.27-24.26,24.91-24.44,24.91-24.44,2.97-.37,1.11-2.7,1.11-2.7-5.48-5.67-25.46,3.53-25.46,3.53,0,0,1.39-14.4,3.16-17.1,1.76-2.7,38.29-12.2,45.07,10.48M451.26,86.72c3.53-.55,2.41-6.87,2.41-6.87,0-2.97-2.04-2.7-2.04-2.7,0,0-5.23.98-5.44,4.97,0,0-.46,5.23,5.23,4.58l-.16.02"/>
</svg>