<?xml version="1.0" encoding="UTF-8" standalone="no"?>
<!-- Created with Inkscape (http://www.inkscape.org/) -->

<svg
   version="1.1"
   id="svg1"
   width="460.33334"
   height="226.21333"
   viewBox="0 0 460.33334 226.21333"
   sodipodi:docname="SBS Logotyp CMYK.eps"
   xmlns:inkscape="http://www.inkscape.org/namespaces/inkscape"
   xmlns:sodipodi="http://sodipodi.sourceforge.net/DTD/sodipodi-0.dtd"
   xmlns="http://www.w3.org/2000/svg"
   xmlns:svg="http://www.w3.org/2000/svg">
  <defs
     id="defs1" />
  <sodipodi:namedview
     id="namedview1"
     pagecolor="#ffffff"
     bordercolor="#000000"
     borderopacity="0.25"
     inkscape:showpageshadow="2"
     inkscape:pageopacity="0.0"
     inkscape:pagecheckerboard="0"
     inkscape:deskcolor="#d1d1d1">
    <inkscape:page
       x="0"
       y="0"
       inkscape:label="1"
       id="page1"
       width="460.33334"
       height="226.21333"
       margin="0"
       bleed="0" />
  </sodipodi:namedview>
  <g
     id="g1"
     inkscape:groupmode="layer"
     inkscape:label="1">
    <g
       id="group-R5">
      <path
         id="path2"
         d="m 1302.21,1631.4 c 0.01,0.42 0.07,0.82 0.07,1.24 0,35.35 -28.1,64.01 -62.76,64.01 H 801.25 v -0.02 c -34.484,-0.21 -62.379,-28.77 -62.379,-63.99 v -153.83 c 0,-35.22 27.895,-63.78 62.379,-63.99 v -0.02 h 438.27 c 34.66,0 62.76,28.66 62.76,64.01 0,0.42 -0.06,0.82 -0.07,1.24 v 151.35"
         style="fill:#2d9264;fill-opacity:1;fill-rule:nonzero;stroke:none"
         transform="matrix(0.13333333,0,0,-0.13333333,0,226.21333)" />
      <path
         id="path3"
         d="m 2006.98,1631.4 c 0.01,0.42 0.06,0.82 0.06,1.24 0,35.35 -28.14,64.01 -62.85,64.01 h -438.93 v -0.02 c -34.54,-0.21 -62.47,-28.77 -62.47,-63.99 v -153.83 c 0,-35.22 27.93,-63.78 62.47,-63.99 v -0.02 h 438.93 c 34.71,0 62.85,28.66 62.85,64.01 0,0.42 -0.05,0.82 -0.06,1.24 v 151.35"
         style="fill:#2d9264;fill-opacity:1;fill-rule:nonzero;stroke:none"
         transform="matrix(0.13333333,0,0,-0.13333333,0,226.21333)" />
      <path
         id="path4"
         d="m 2006.98,1279.08 c 0.01,0.41 0.06,0.81 0.06,1.23 0,35.25 -28.17,63.82 -62.92,63.82 h -439.45 v -0.02 c -34.58,-0.2 -62.55,-28.68 -62.55,-63.8 v -153.38 c 0,-35.12 27.97,-63.59 62.55,-63.8 v -0.02 h 439.45 c 34.75,0 62.92,28.57 62.92,63.82 0,0.42 -0.05,0.82 -0.06,1.24 v 150.91"
         style="fill:#2d9264;fill-opacity:1;fill-rule:nonzero;stroke:none"
         transform="matrix(0.13333333,0,0,-0.13333333,0,226.21333)" />
      <path
         id="path5"
         d="m 1091.31,1279.08 c 0.01,0.41 0.06,0.81 0.06,1.23 0,35.25 -28.09,63.82 -62.75,63.82 H 590.34 v -0.02 c -34.485,-0.2 -62.379,-28.68 -62.379,-63.8 v -153.38 c 0,-35.12 27.894,-63.59 62.379,-63.8 v -0.02 h 438.28 c 34.66,0 62.75,28.57 62.75,63.82 0,0.42 -0.05,0.82 -0.06,1.24 v 150.91"
         style="fill:#2d9264;fill-opacity:1;fill-rule:nonzero;stroke:none"
         transform="matrix(0.13333333,0,0,-0.13333333,0,226.21333)" />
      <path
         id="path6"
         d="m 2922.24,1631.4 c 0.01,0.42 0.06,0.82 0.06,1.24 0,35.35 -28.14,64.01 -62.85,64.01 h -438.9 v -0.02 c -34.53,-0.21 -62.47,-28.77 -62.47,-63.99 v -153.83 c 0,-35.22 27.94,-63.78 62.47,-63.99 v -0.02 h 438.9 c 34.71,0 62.85,28.66 62.85,64.01 0,0.42 -0.05,0.82 -0.06,1.24 v 151.35"
         style="fill:#2d9264;fill-opacity:1;fill-rule:nonzero;stroke:none"
         transform="matrix(0.13333333,0,0,-0.13333333,0,226.21333)" />
      <path
         id="path7"
         d="m 2711.06,1279.08 c 0.01,0.41 0.06,0.81 0.06,1.23 0,35.25 -28.1,63.82 -62.76,63.82 h -438.29 v -0.02 c -34.48,-0.2 -62.38,-28.68 -62.38,-63.8 v -153.38 c 0,-35.12 27.9,-63.59 62.38,-63.8 v -0.02 h 438.29 c 34.66,0 62.76,28.57 62.76,63.82 0,0.42 -0.05,0.82 -0.06,1.24 v 150.91"
         style="fill:#2d9264;fill-opacity:1;fill-rule:nonzero;stroke:none"
         transform="matrix(0.13333333,0,0,-0.13333333,0,226.21333)" />
      <path
         id="path8"
         d="m 103.738,554.449 -10.57,1.68 c -7.8086,1.262 -15.6563,2.531 -23.6172,3.531 -8.1641,1.07 -27.1563,5.66 -27.1563,24.93 0,7.601 2.2891,13.66 7.3711,19.601 7.6367,8.618 18.5703,12.809 33.4219,12.809 14.3711,0 25.8205,-4.41 33.1055,-12.781 5.387,-6.188 8.633,-14.481 9.141,-23.321 l 0.214,-3.777 h 34.79 l -0.133,4.141 c -0.614,18.347 -7.645,34.047 -20.887,46.679 -13.777,13.2 -34.168,20.77 -55.9414,20.77 -22.418,0 -41.4219,-7.172 -56.5039,-21.332 C 14.7891,615.84 7.80859,600.039 7.80859,584.02 c 0,-31.481 21.14841,-52.719 57.99611,-58.29 6.168,-0.968 12.0625,-1.851 18.0391,-2.75 l 14.3398,-2.171 c 19.9924,-3.079 31.0004,-13.379 31.0004,-28.981 0,-8.828 -2.801,-15.308 -9.133,-21.078 -7.727,-7.238 -19.313,-10.762 -35.4182,-10.762 -15.375,0 -29.0273,4.332 -36.5273,11.59 -8.1602,7.891 -13.2266,19.184 -13.2266,29.5 v 4 H 0 v -4 C 0,481.781 8.47266,462.809 23.2617,449 c 14.7852,-13.551 36.0078,-20.719 61.3711,-20.719 24.6402,0 46.8322,7.899 60.8872,21.66 12.3,11.981 18.543,26.25 18.543,42.457 0,32.911 -23.129,56.68 -60.325,62.051"
         style="fill:#0b0c0d;fill-opacity:1;fill-rule:nonzero;stroke:none"
         transform="matrix(0.13333333,0,0,-0.13333333,0,226.21333)" />
      <path
         id="path9"
         d="m 221.953,612.961 h 60.981 V 432.039 h 34.007 v 180.922 h 60.981 v 31.988 H 221.953 v -31.988"
         style="fill:#0b0c0d;fill-opacity:1;fill-rule:nonzero;stroke:none"
         transform="matrix(0.13333333,0,0,-0.13333333,0,226.21333)" />
      <path
         id="path10"
         d="m 574.242,510.609 c 0,-33.871 -14.762,-50.32 -45.125,-50.32 -30.367,0 -45.133,16.449 -45.133,50.32 v 134.34 H 450.266 V 511.18 c 0,-51.899 29.476,-82.899 78.851,-82.899 49.367,0 78.848,31 78.848,82.899 v 133.769 h -33.723 v -134.34"
         style="fill:#0b0c0d;fill-opacity:1;fill-rule:nonzero;stroke:none"
         transform="matrix(0.13333333,0,0,-0.13333333,0,226.21333)" />
      <path
         id="path11"
         d="m 830.875,538.641 c 0,-23.45 -1.996,-47.18 -16.457,-61.903 -8.258,-8.258 -20.496,-12.988 -33.59,-12.988 h -41.664 v 149.488 h 41.664 c 13.078,0 25.309,-4.707 33.563,-12.949 14.488,-15.019 16.484,-38.508 16.484,-61.648 z m -50.047,106.308 h -75.379 v -212.91 h 75.379 c 21.922,0 41.992,7.691 56.527,21.633 l 0.004,0.008 c 24.395,23.449 27.524,57.73 27.524,84.961 0,28.808 -3.274,61.371 -27.528,84.379 -14.718,14.14 -34.796,21.929 -56.527,21.929"
         style="fill:#0b0c0d;fill-opacity:1;fill-rule:nonzero;stroke:none"
         transform="matrix(0.13333333,0,0,-0.13333333,0,226.21333)" />
      <path
         id="path12"
         d="M 954.566,432.039 H 1099.55 V 463.75 H 988.281 v 62.801 h 97.689 v 32.277 h -97.689 v 54.41 h 111.269 v 31.711 H 954.566 v -212.91"
         style="fill:#0b0c0d;fill-opacity:1;fill-rule:nonzero;stroke:none"
         transform="matrix(0.13333333,0,0,-0.13333333,0,226.21333)" />
      <path
         id="path13"
         d="m 1318.13,489.898 -94.33,155.051 h -35.15 v -212.91 h 32.85 v 154.512 l 93.16,-152.582 1.17,-1.93 h 35.15 v 212.91 h -32.85 V 489.898"
         style="fill:#0b0c0d;fill-opacity:1;fill-rule:nonzero;stroke:none"
         transform="matrix(0.13333333,0,0,-0.13333333,0,226.21333)" />
      <path
         id="path14"
         d="m 1429.1,612.961 h 60.98 V 432.039 h 34.01 v 180.922 h 60.97 v 31.988 H 1429.1 v -31.988"
         style="fill:#0b0c0d;fill-opacity:1;fill-rule:nonzero;stroke:none"
         transform="matrix(0.13333333,0,0,-0.13333333,0,226.21333)" />
      <path
         id="path15"
         d="m 1786.59,495 c 0,-19.57 -13.74,-31.25 -36.75,-31.25 h -53.51 v 63.371 h 54.09 c 17.42,0 36.17,-10.051 36.17,-32.121 z m -90.26,62.68 v 56.429 h 52.64 c 15.22,0 33,-7.347 33,-28.07 0,-18.82 -10.81,-28.359 -32.13,-28.359 z M 1804.2,452.102 c 11.08,11.789 16.69,25.636 16.69,41.168 0,21.332 -11.14,40.25 -28.49,49.609 14.74,8.973 23.86,25.82 23.86,45.18 0,14.281 -4.55,25.972 -14.33,36.793 -11.41,12.578 -31.21,20.097 -52.96,20.097 h -85.78 v -212.91 h 86.65 c 22.36,0 42.68,7.5 54.36,20.063"
         style="fill:#0b0c0d;fill-opacity:1;fill-rule:nonzero;stroke:none"
         transform="matrix(0.13333333,0,0,-0.13333333,0,226.21333)" />
      <path
         id="path16"
         d="m 2032.53,538.352 c 0,-22.563 -1.28,-47.942 -16.5,-63.68 -8.71,-8.961 -21.24,-14.102 -34.41,-14.102 -13.16,0 -25.7,5.141 -34.4,14.102 -15.24,15.75 -16.51,41.129 -16.51,63.68 0,22.546 1.27,47.929 16.5,63.687 8.7,8.961 21.24,14.102 34.41,14.102 13.17,0 25.7,-5.141 34.41,-14.102 15.22,-15.75 16.5,-41.129 16.5,-63.687 z m -50.91,110.359 c -22.19,0 -42.79,-8.211 -57.99,-23.102 -24.18,-23.558 -27.51,-55.859 -27.51,-87.257 0,-31.403 3.33,-63.711 27.5,-87.231 15.2,-14.91 35.79,-23.121 58,-23.121 22.2,0 42.79,8.199 57.99,23.109 24.17,23.539 27.51,55.852 27.51,87.243 0,31.398 -3.33,63.699 -27.5,87.257 -15.21,14.891 -35.81,23.102 -58,23.102"
         style="fill:#0b0c0d;fill-opacity:1;fill-rule:nonzero;stroke:none"
         transform="matrix(0.13333333,0,0,-0.13333333,0,226.21333)" />
      <path
         id="path17"
         d="m 2225.54,428.281 c 24.64,0 46.83,7.899 60.88,21.66 12.31,11.981 18.55,26.25 18.55,42.457 0,32.911 -23.13,56.68 -60.33,62.051 l -10.57,1.68 c -7.81,1.262 -15.66,2.531 -23.62,3.531 -8.16,1.07 -27.15,5.66 -27.15,24.93 0,7.601 2.29,13.66 7.37,19.601 7.64,8.618 18.57,12.809 33.42,12.809 14.37,0 25.82,-4.41 33.11,-12.781 5.38,-6.188 8.63,-14.481 9.14,-23.321 l 0.21,-3.777 h 34.79 l -0.13,4.141 c -0.61,18.347 -7.64,34.047 -20.88,46.679 -13.79,13.2 -34.18,20.77 -55.95,20.77 -22.42,0 -41.42,-7.172 -56.5,-21.332 -12.19,-11.539 -19.17,-27.348 -19.17,-43.359 0,-31.481 21.14,-52.719 58,-58.29 6.17,-0.968 12.06,-1.851 18.04,-2.75 l 14.34,-2.171 c 19.99,-3.079 31,-13.379 31,-28.981 0,-8.828 -2.81,-15.316 -9.14,-21.078 -7.73,-7.238 -19.31,-10.762 -35.41,-10.762 -15.38,0 -29.03,4.332 -36.53,11.59 -8.16,7.891 -13.23,19.184 -13.23,29.5 v 4 h -34.88 v -4 c 0,-19.297 8.48,-38.269 23.27,-52.078 14.78,-13.551 36,-20.719 61.37,-20.719"
         style="fill:#0b0c0d;fill-opacity:1;fill-rule:nonzero;stroke:none"
         transform="matrix(0.13333333,0,0,-0.13333333,0,226.21333)" />
      <path
         id="path18"
         d="m 2518.82,644.949 h -155.96 v -31.988 h 60.98 V 432.039 h 34.01 v 180.922 h 60.97 v 31.988"
         style="fill:#0b0c0d;fill-opacity:1;fill-rule:nonzero;stroke:none"
         transform="matrix(0.13333333,0,0,-0.13333333,0,226.21333)" />
      <path
         id="path19"
         d="m 2671.65,512.879 h -61.37 l 30.56,89.949 z m -48.11,132.07 -75.06,-212.91 H 2583 l 16.48,48.563 h 83.29 l 16.77,-48.563 h 35.09 l -75.37,212.91 h -35.72"
         style="fill:#0b0c0d;fill-opacity:1;fill-rule:nonzero;stroke:none"
         transform="matrix(0.13333333,0,0,-0.13333333,0,226.21333)" />
      <path
         id="path20"
         d="m 2690.35,707.277 h -34.58 V 672.68 h 34.58 v 34.597"
         style="fill:#0b0c0d;fill-opacity:1;fill-rule:nonzero;stroke:none"
         transform="matrix(0.13333333,0,0,-0.13333333,0,226.21333)" />
      <path
         id="path21"
         d="m 2627.8,707.277 h -34.59 V 672.68 h 34.59 v 34.597"
         style="fill:#0b0c0d;fill-opacity:1;fill-rule:nonzero;stroke:none"
         transform="matrix(0.13333333,0,0,-0.13333333,0,226.21333)" />
      <path
         id="path22"
         d="m 2935.07,538.641 c 0,-23.45 -1.99,-47.18 -16.45,-61.903 -8.26,-8.258 -20.5,-12.988 -33.59,-12.988 h -41.67 v 149.488 h 41.67 c 13.08,0 25.31,-4.707 33.56,-12.949 14.49,-15.019 16.48,-38.508 16.48,-61.648 z m -50.04,106.308 h -75.38 v -212.91 h 75.38 c 21.92,0 41.99,7.691 56.52,21.633 l 0.01,0.008 c 24.39,23.449 27.52,57.73 27.52,84.961 0,28.808 -3.27,61.371 -27.53,84.379 -14.71,14.14 -34.79,21.929 -56.52,21.929"
         style="fill:#0b0c0d;fill-opacity:1;fill-rule:nonzero;stroke:none"
         transform="matrix(0.13333333,0,0,-0.13333333,0,226.21333)" />
      <path
         id="path23"
         d="m 3058.76,432.039 h 144.99 v 31.711 h -111.27 v 62.801 h 97.69 v 32.277 h -97.69 v 54.41 h 111.27 v 31.711 h -144.99 v -212.91"
         style="fill:#0b0c0d;fill-opacity:1;fill-rule:nonzero;stroke:none"
         transform="matrix(0.13333333,0,0,-0.13333333,0,226.21333)" />
      <path
         id="path24"
         d="m 3414.81,581.129 c 0,-21.129 -12.66,-31.84 -37.62,-31.84 h -50.62 v 63.949 h 50.62 c 24.96,0 37.62,-10.797 37.62,-32.109 z m -4.14,-57.231 c 8.97,3.473 16.53,8.262 22.03,14.024 11.55,12.226 16.69,25.547 16.69,43.207 0,17.531 -5.64,32.051 -17.31,44.41 -12.57,12.883 -31.04,19.41 -54.89,19.41 h -84.34 v -212.91 h 33.72 v 85.262 h 50.07 l 38.72,-85.262 h 37.12 l -41.81,91.859"
         style="fill:#0b0c0d;fill-opacity:1;fill-rule:nonzero;stroke:none"
         transform="matrix(0.13333333,0,0,-0.13333333,0,226.21333)" />
      <path
         id="path25"
         d="m 655.168,6.03906 h 34.297 V 218.949 H 655.168 V 6.03906"
         style="fill:#0b0c0d;fill-opacity:1;fill-rule:nonzero;stroke:none"
         transform="matrix(0.13333333,0,0,-0.13333333,0,226.21333)" />
      <path
         id="path26"
         d="M 1042.13,61.9102 947.805,216.961 H 912.66 V 4.05078 h 32.852 V 158.551 l 93.158,-152.58225 1.17,-1.91797 h 35.15 V 216.961 h -32.86 V 61.9102"
         style="fill:#0b0c0d;fill-opacity:1;fill-rule:nonzero;stroke:none"
         transform="matrix(0.13333333,0,0,-0.13333333,0,226.21333)" />
      <path
         id="path27"
         d="m 1301.07,110.352 c 0,-22.5512 -1.28,-47.9418 -16.5,-63.6801 -8.71,-8.961 -21.24,-14.1016 -34.41,-14.1016 -13.16,0 -25.7,5.1406 -34.4,14.1016 -15.24,15.75 -16.51,41.1367 -16.51,63.6801 0,22.546 1.27,47.929 16.5,63.699 8.7,8.949 21.24,14.09 34.41,14.09 13.17,0 25.71,-5.141 34.41,-14.09 15.22,-15.77 16.5,-41.153 16.5,-63.699 z m -50.91,110.367 c -22.19,0 -42.79,-8.219 -57.99,-23.11 -24.18,-23.55 -27.51,-55.859 -27.51,-87.257 0,-31.4028 3.33,-63.7114 27.5,-87.2309 C 1207.36,8.21875 1227.95,0 1250.16,0 c 22.2,0 42.79,8.21094 57.99,23.1094 24.17,23.539 27.51,55.8515 27.51,87.2426 0,31.398 -3.33,63.707 -27.5,87.257 -15.21,14.891 -35.81,23.11 -58,23.11"
         style="fill:#0b0c0d;fill-opacity:1;fill-rule:nonzero;stroke:none"
         transform="matrix(0.13333333,0,0,-0.13333333,0,226.21333)" />
      <path
         id="path28"
         d="m 1547.3,153.129 c 0,-21.129 -12.66,-31.84 -37.62,-31.84 h -50.62 v 63.961 h 50.62 c 24.96,0 37.62,-10.801 37.62,-32.121 z m 17.89,-43.207 c 11.55,12.226 16.69,25.547 16.69,43.207 0,17.539 -5.64,32.051 -17.31,44.41 -12.57,12.883 -31.04,19.422 -54.89,19.422 h -84.34 V 4.05078 h 33.72 V 89.3008 h 50.07 l 38.72,-85.25002 h 37.12 l -41.81,91.84762 c 8.97,3.4727 16.53,8.2616 22.03,14.0236"
         style="fill:#0b0c0d;fill-opacity:1;fill-rule:nonzero;stroke:none"
         transform="matrix(0.13333333,0,0,-0.13333333,0,226.21333)" />
      <path
         id="path29"
         d="m 1795.55,110.648 c 0,-23.4566 -2,-47.1871 -16.46,-61.9097 C 1770.84,40.4805 1758.6,35.75 1745.5,35.75 h -41.66 v 149.5 h 41.66 c 13.08,0 25.32,-4.719 33.57,-12.961 14.48,-15.019 16.48,-38.508 16.48,-61.641 z m -50.05,106.313 h -75.38 V 4.05078 h 75.38 c 21.92,0 42,7.67972 56.53,21.62892 v 0.0117 c 24.4,23.4375 27.53,57.7188 27.53,84.9566 0,28.813 -3.28,61.364 -27.53,84.372 -14.72,14.14 -34.8,21.941 -56.53,21.941"
         style="fill:#0b0c0d;fill-opacity:1;fill-rule:nonzero;stroke:none"
         transform="matrix(0.13333333,0,0,-0.13333333,0,226.21333)" />
      <path
         id="path30"
         d="m 1919.24,4.05078 h 144.98 V 35.75 h -111.27 v 62.8008 h 97.69 v 32.2772 h -97.69 v 54.422 h 111.27 v 31.711 H 1919.24 V 4.05078"
         style="fill:#0b0c0d;fill-opacity:1;fill-rule:nonzero;stroke:none"
         transform="matrix(0.13333333,0,0,-0.13333333,0,226.21333)" />
      <path
         id="path31"
         d="m 2282.8,61.9102 -94.33,155.0508 h -35.14 V 4.05078 h 32.85 V 158.551 l 93.16,-152.58225 1.16,-1.91797 h 35.15 V 216.961 H 2282.8 V 61.9102"
         style="fill:#0b0c0d;fill-opacity:1;fill-rule:nonzero;stroke:none"
         transform="matrix(0.13333333,0,0,-0.13333333,0,226.21333)" />
      <path
         id="path32"
         d="m 2633.77,84.8906 h -61.36 l 30.56,89.9494 z M 2585.67,216.961 2510.61,4.05078 h 34.52 l 16.48,48.55082 h 83.29 l 16.77,-48.55082 h 35.09 L 2621.39,216.961 h -35.72"
         style="fill:#0b0c0d;fill-opacity:1;fill-rule:nonzero;stroke:none"
         transform="matrix(0.13333333,0,0,-0.13333333,0,226.21333)" />
      <path
         id="path33"
         d="m 2804.92,129.68 v 56.441 h 52.64 c 15.22,0 33,-7.359 33,-28.082 0,-18.82 -10.81,-28.359 -32.13,-28.359 z M 2895.18,67 c 0,-19.5703 -13.74,-31.25 -36.75,-31.25 h -53.51 v 63.3711 h 54.09 c 17.42,0 36.17,-10.0508 36.17,-32.1211 z m 5.81,47.891 c 14.74,8.961 23.86,25.82 23.86,45.168 0,14.293 -4.55,25.972 -14.33,36.793 -11.41,12.589 -31.21,20.109 -52.96,20.109 h -85.78 V 4.05078 h 86.65 c 22.36,0 42.68,7.50002 54.36,20.05082 11.08,11.789 16.69,25.6367 16.69,41.1797 0,21.3203 -11.15,40.2387 -28.49,49.6097"
         style="fill:#0b0c0d;fill-opacity:1;fill-rule:nonzero;stroke:none"
         transform="matrix(0.13333333,0,0,-0.13333333,0,226.21333)" />
    </g>
  </g>
</svg>
