<svg xmlns="http://www.w3.org/2000/svg" viewBox="1051.0725227 0 412.2426306 218.79729729729732" id="svg1" version="1.1" style="max-height: 500px" width="412.2426306" height="218.79729729729732">
  <defs id="defs1"/>
  
    
  
  <g id="g1">
    <g id="group-R5">
      <path transform="matrix(0.13333333,0,0,-0.13333333,0,215.88)" style="fill:#2e2a2b;fill-opacity:1;fill-rule:nonzero;stroke:none" d="m 9410.59,1174.81 -577.11,-332.896 192.3,-111.035 384.63,221.715 384.61,-221.731 192.59,111.051 -577.02,332.896" id="path2"/>
      <path transform="matrix(0.13333333,0,0,-0.13333333,0,215.88)" style="fill:#d3d2d2;fill-opacity:1;fill-rule:nonzero;stroke:none" d="M 8833.48,1507.71 V 841.914 l 577.11,332.896 -0.05,221.88 -191.93,-110.73 -192.95,-111.39 v 444.51 l -192.18,-111.37" id="path3"/>
      <path transform="matrix(0.13333333,0,0,-0.13333333,0,215.88)" style="fill:#2e2a2b;fill-opacity:1;fill-rule:nonzero;stroke:none" d="m 9218.09,1508.06 v -222.1 l -192.43,-111.39 v 444.51 l 192.43,-111.02" id="path4"/>
      <path transform="matrix(0.13333333,0,0,-0.13333333,0,215.88)" style="fill:#e9e9e9;fill-opacity:1;fill-rule:nonzero;stroke:none" d="M 9987.61,1507.71 V 841.914 l -577.02,332.896 -0.05,221.88 191.93,-110.73 192.96,-111.39 -0.11,444.51 192.29,-111.37" id="path5"/>
      <path transform="matrix(0.13333333,0,0,-0.13333333,0,215.88)" style="fill:#2e2a2b;fill-opacity:1;fill-rule:nonzero;stroke:none" d="m 9602.39,1507.89 0.08,-221.93 192.87,-111.57 -0.02,444.52 -192.93,-111.02" id="path6"/>
      <path transform="matrix(0.13333333,0,0,-0.13333333,0,215.88)" style="fill:#2e2a2b;fill-opacity:1;fill-rule:nonzero;stroke:none" d="m 8122.35,173.551 h 1.34 l 100.12,268.39 h 58.07 l 104.14,-268.39 h 1.33 l 98.79,343.097 h 102.8 L 8418.72,3.33984 h -72.09 L 8246.51,251.031 h -1.34 L 8150.39,3.33984 H 8078.3 L 7918.1,516.648 h 102.79 l 101.46,-343.097" id="path7"/>
      <path transform="matrix(0.13333333,0,0,-0.13333333,0,215.88)" style="fill:#2e2a2b;fill-opacity:1;fill-rule:nonzero;stroke:none" d="m 8713.76,13.3594 h -98.13 V 516.648 h 98.13 V 13.3594" id="path8"/>
      <path transform="matrix(0.13333333,0,0,-0.13333333,0,215.88)" style="fill:#2e2a2b;fill-opacity:1;fill-rule:nonzero;stroke:none" d="m 9040.16,516.648 h 120.82 L 8970.08,284.359 9171.66,13.3594 H 9045.5 L 8884.64,239.641 h -1.34 V 13.3594 h -98.13 V 516.648 h 98.13 V 304.391 h 1.34 l 155.52,212.257" id="path9"/>
      <path transform="matrix(0.13333333,0,0,-0.13333333,0,215.88)" style="fill:#2e2a2b;fill-opacity:1;fill-rule:nonzero;stroke:none" d="m 9423.97,433.211 c -92.78,0 -147.52,-82.102 -147.52,-163.531 0,-77.43 38.72,-172.8909 147.52,-172.8909 108.8,0 147.52,95.4609 147.52,172.8909 0,81.429 -54.73,163.531 -147.52,163.531 z M 9423.97,0 C 9270.44,0 9175,117.488 9175,265.672 9175,415.191 9273.78,530 9423.97,530 9574.16,530 9672.95,415.191 9672.95,265.672 9672.95,117.488 9577.5,0 9423.97,0" id="path10"/>
      <path transform="matrix(0.13333333,0,0,-0.13333333,0,215.88)" style="fill:#2e2a2b;fill-opacity:1;fill-rule:nonzero;stroke:none" d="m 9879.88,173.551 h 1.33 l 100.13,268.39 h 58.06 l 104.1,-268.39 h 1.4 l 98.8,343.097 h 102.8 L 10176.3,3.33984 h -72.1 L 10004,251.031 h -1.3 L 9907.92,3.33984 h -72.1 L 9675.62,516.648 h 102.8 l 101.46,-343.097" id="path11"/>
      <path transform="matrix(0.13333333,0,0,-0.13333333,0,215.88)" style="fill:#2e2a2b;fill-opacity:1;fill-rule:nonzero;stroke:none" d="m 10471.3,13.3594 h -98.1 V 516.648 h 98.1 V 13.3594" id="path12"/>
      <path transform="matrix(0.13333333,0,0,-0.13333333,0,215.88)" style="fill:#2e2a2b;fill-opacity:1;fill-rule:nonzero;stroke:none" d="m 10730.3,382.488 h -1.4 l -55.4,-182.898 h 119.5 z m -84.8,-263 -41.4,-106.1286 h -103.4 L 10696.9,530 h 76.1 l 190.9,-516.6406 h -104.8 l -38.7,106.1286 h -174.9" id="path13"/>
      <path transform="matrix(0.13333333,0,0,-0.13333333,0,215.88)" style="fill:#23252a;fill-opacity:1;fill-rule:nonzero;stroke:none" d="M 468.965,730.73 0,460.219 156.27,369.988 468.816,550.16 781.355,369.98 937.859,460.219 468.965,730.73" id="path14"/>
      <path transform="matrix(0.13333333,0,0,-0.13333333,0,215.88)" style="fill:#d3d2d3;fill-opacity:1;fill-rule:nonzero;stroke:none" d="M 0,1001.25 V 460.219 L 468.965,730.73 468.93,911.039 312.965,821.059 156.168,730.535 V 1091.75 L 0,1001.25" id="path15"/>
      <path transform="matrix(0.13333333,0,0,-0.13333333,0,215.88)" style="fill:#23252a;fill-opacity:1;fill-rule:nonzero;stroke:none" d="M 312.539,1001.54 V 821.059 L 156.168,730.535 v 361.215 l 156.371,-90.21" id="path16"/>
      <path transform="matrix(0.13333333,0,0,-0.13333333,0,215.88)" style="fill:#eae9e9;fill-opacity:1;fill-rule:nonzero;stroke:none" d="M 937.859,1001.25 V 460.219 l -468.894,270.511 -0.035,180.309 155.965,-89.98 156.796,-90.524 -0.086,361.215 156.254,-90.5" id="path17"/>
      <path transform="matrix(0.13333333,0,0,-0.13333333,0,215.88)" style="fill:#23252a;fill-opacity:1;fill-rule:nonzero;stroke:none" d="m 624.824,1001.39 0.071,-180.331 156.726,-90.664 -0.016,361.215 -156.781,-90.22" id="path18"/>
      <path transform="matrix(0.13333333,0,0,-0.13333333,0,215.88)" style="fill:#393536;fill-opacity:1;fill-rule:nonzero;stroke:none" d="m 1574.1,637.457 h 1.36 l 101.75,272.754 h 59.02 l 105.83,-272.754 h 1.35 l 100.4,348.68 h 104.47 L 1875.3,464.469 h -73.27 l -101.75,251.73 h -1.36 l -96.32,-251.73 h -73.27 l -162.81,521.668 h 104.47 l 103.11,-348.68" id="path19"/>
      <path transform="matrix(0.13333333,0,0,-0.13333333,0,215.88)" style="fill:#393536;fill-opacity:1;fill-rule:nonzero;stroke:none" d="m 2175.14,474.648 h -99.73 v 511.489 h 99.73 V 474.648" id="path20"/>
      <path transform="matrix(0.13333333,0,0,-0.13333333,0,215.88)" style="fill:#393536;fill-opacity:1;fill-rule:nonzero;stroke:none" d="m 2506.85,986.137 h 122.78 L 2435.62,750.066 2640.49,474.648 h -128.21 l -163.49,229.969 h -1.35 V 474.648 h -99.73 v 511.489 h 99.73 V 770.418 h 1.35 l 158.06,215.719" id="path21"/>
      <path transform="matrix(0.13333333,0,0,-0.13333333,0,215.88)" style="fill:#393536;fill-opacity:1;fill-rule:nonzero;stroke:none" d="m 2896.91,901.344 c -94.29,0 -149.92,-83.442 -149.92,-166.199 0,-78.688 39.34,-175.696 149.92,-175.696 110.57,0 149.91,97.008 149.91,175.696 0,82.757 -55.62,166.199 -149.91,166.199 z m 0,-440.262 c -156.03,0 -253.03,119.398 -253.03,269.992 0,151.953 100.39,268.633 253.03,268.633 152.63,0 253.03,-116.68 253.03,-268.633 0,-150.594 -97.01,-269.992 -253.03,-269.992" id="path22"/>
      <path transform="matrix(0.13333333,0,0,-0.13333333,0,215.88)" style="fill:#393536;fill-opacity:1;fill-rule:nonzero;stroke:none" d="m 3360.23,637.457 h 1.36 l 101.76,272.754 h 59.02 l 105.82,-272.754 h 1.35 l 100.4,348.68 h 104.48 L 3661.43,464.469 h -73.27 l -101.75,251.73 h -1.35 l -96.33,-251.73 h -73.27 l -162.81,521.668 h 104.47 l 103.11,-348.68" id="path23"/>
      <path transform="matrix(0.13333333,0,0,-0.13333333,0,215.88)" style="fill:#393536;fill-opacity:1;fill-rule:nonzero;stroke:none" d="m 3961.27,474.648 h -99.72 v 511.489 h 99.72 V 474.648" id="path24"/>
      <path transform="matrix(0.13333333,0,0,-0.13333333,0,215.88)" style="fill:#393536;fill-opacity:1;fill-rule:nonzero;stroke:none" d="m 4224.48,849.789 h -1.36 l -56.31,-185.875 h 121.43 z m -86.16,-267.277 -42.05,-107.864 h -105.15 l 199.44,525.059 h 77.33 L 4461.9,474.648 h -106.5 l -39.34,107.864 h -177.74" id="path25"/>
    </g>
  </g>
</svg>