<svg xmlns="http://www.w3.org/2000/svg" width="1200" height="630" viewBox="0 0 1200 630" role="img" aria-labelledby="title desc">
  <title id="title">CampusLyan</title>
  <desc id="desc">Gratis studentbostäder samlade på ett ställe</desc>
  <defs>
    <linearGradient id="bg" x1="0" x2="1" y1="0" y2="1">
      <stop offset="0" stop-color="#f7f5ef"/>
      <stop offset="0.52" stop-color="#eef4ee"/>
      <stop offset="1" stop-color="#f7f0e4"/>
    </linearGradient>
    <filter id="shadow" x="-20%" y="-20%" width="140%" height="140%">
      <feDropShadow dx="0" dy="20" stdDeviation="22" flood-color="#00331d" flood-opacity="0.18"/>
    </filter>
  </defs>

  <rect width="1200" height="630" fill="url(#bg)"/>
  <circle cx="1040" cy="104" r="230" fill="#ffb84d" opacity="0.18"/>
  <circle cx="1018" cy="560" r="250" fill="#004225" opacity="0.08"/>
  <path d="M0 513 C154 448 278 460 430 505 C596 555 760 571 1200 421 L1200 630 L0 630 Z" fill="#004225" opacity="0.08"/>

  <g filter="url(#shadow)">
    <rect x="82" y="92" width="1036" height="446" rx="36" fill="#fffdf8" opacity="0.92"/>
  </g>

  <g transform="translate(140 170)">
    <rect x="0" y="0" width="170" height="170" rx="42" fill="#f2efe5"/>
    <g transform="translate(25 22) scale(0.32)">
      <path fill="#004225" d="M 37.5 239.269531 L 93.289062 278.109375 L 93.289062 141.976562 L 186.304688 76.121094 L 187.042969 75.726562 L 187.507812 75.390625 L 187.96875 75.726562 L 281.722656 141.90625 L 281.722656 270.183594 L 173.164062 270.183594 L 125.28125 303.726562 L 125.28125 367.90625 L 184.855469 326.070312 L 281.722656 326.101562 L 332.910156 326.125 L 335.230469 326.125 L 335.992188 326.128906 L 337.507812 326.128906 L 337.507812 113.011719 L 281.722656 73.621094 L 235.871094 41.25 L 187.96875 7.429688 L 187.507812 7.101562 L 187.042969 7.429688 L 139.140625 41.25 L 93.289062 73.621094 L 37.5 113.011719 Z M 37.5 239.269531" fill-rule="evenodd"/>
    </g>
  </g>

  <g transform="translate(360 162)">
    <text x="0" y="54" fill="#004225" font-family="Outfit, Inter, Arial, sans-serif" font-size="74" font-weight="800">CampusLyan</text>
    <text x="0" y="126" fill="#1f2f27" font-family="Outfit, Inter, Arial, sans-serif" font-size="40" font-weight="700">Gratis studentbostäder</text>
    <text x="0" y="182" fill="#36463d" font-family="Outfit, Inter, Arial, sans-serif" font-size="34" font-weight="500">Bostäder, köer och bostadsbolag</text>
    <text x="0" y="238" fill="#36463d" font-family="Outfit, Inter, Arial, sans-serif" font-size="34" font-weight="500">samlade på ett ställe.</text>
  </g>

  <g transform="translate(140 420)">
    <rect width="204" height="50" rx="25" fill="#004225"/>
    <text x="102" y="34" text-anchor="middle" fill="#ffffff" font-family="Outfit, Inter, Arial, sans-serif" font-size="22" font-weight="700">campuslyan.se</text>
  </g>
</svg>
