<svg xmlns="http://www.w3.org/2000/svg" xmlns:xlink="http://www.w3.org/1999/xlink" width="500" zoomAndPan="magnify" viewBox="0 0 375 374.999991" height="500" preserveAspectRatio="xMidYMid meet" version="1.0"><defs><clipPath id="20fdad9374"><path d="M 37.5 7.050781 L 337.5 7.050781 L 337.5 367.800781 L 37.5 367.800781 Z M 37.5 7.050781 " clip-rule="nonzero"/></clipPath></defs><g clip-path="url(#20fdad9374)"><path fill="#004225" d="M 37.5 239.269531 L 93.289062 278.109375 L 93.289062 141.976562 L 186.304688 76.121094 L 187.042969 75.726562 L 187.507812 75.390625 L 187.96875 75.726562 L 281.722656 141.90625 L 281.722656 270.183594 L 173.164062 270.183594 L 125.28125 303.726562 L 125.28125 367.90625 L 184.855469 326.070312 L 281.722656 326.101562 L 332.910156 326.125 L 335.230469 326.125 L 335.992188 326.128906 L 337.507812 326.128906 L 337.507812 113.011719 L 281.722656 73.621094 L 235.871094 41.25 L 187.96875 7.429688 L 187.507812 7.101562 L 187.042969 7.429688 L 139.140625 41.25 L 93.289062 73.621094 L 37.5 113.011719 Z M 37.5 239.269531 " fill-opacity="1" fill-rule="evenodd"/></g></svg>