<svg version="1.1" id="Layer_1" xmlns="http://www.w3.org/2000/svg" xmlns:xlink="http://www.w3.org/1999/xlink" x="0px" y="0px"
	 width="100%" viewBox="0 0 945 652" enable-background="new 0 0 945 652" xml:space="preserve">
<path fill="#FEFDFE" opacity="1.000000" stroke="none" 
	d="
M569.000000,653.000000 
	C379.333344,653.000000 190.166672,653.000000 1.000000,653.000000 
	C1.000000,435.666656 1.000000,218.333328 1.000000,1.000000 
	C316.000000,1.000000 631.000000,1.000000 946.000000,1.000000 
	C946.000000,218.333328 946.000000,435.666656 946.000000,653.000000 
	C820.500000,653.000000 695.000000,653.000000 569.000000,653.000000 
M220.928757,374.926270 
	C220.928757,374.926270 220.824158,374.813232 220.754410,374.131226 
	C220.193344,364.116913 219.632263,354.102600 219.054794,343.795654 
	C215.168030,343.795654 212.027573,343.944550 208.906479,343.762177 
	C203.700180,343.457916 200.957748,346.030334 201.150986,351.038300 
	C201.357468,356.390015 201.435776,361.749756 201.428574,367.105835 
	C201.417892,375.057648 199.734863,376.448944 191.704407,375.417175 
	C191.213486,375.354095 190.727768,375.241455 190.235565,375.198761 
	C187.413925,374.954041 185.742737,375.902863 185.982391,379.091492 
	C186.093918,380.575348 185.957733,382.083130 185.866653,383.575989 
	C185.329147,392.386108 185.322723,392.383850 193.930618,393.471680 
	C194.256622,393.512909 194.565536,393.724762 194.889175,393.744049 
	C201.514297,394.139160 202.119080,394.642914 202.299835,401.345764 
	C202.418808,405.757721 202.128021,410.179138 202.122314,414.596466 
	C202.115707,419.705627 201.982407,424.831879 202.344070,429.919434 
	C202.705444,435.002930 202.232269,440.848816 204.599625,444.922302 
	C208.170120,451.066040 211.402206,457.800049 219.568512,460.690765 
	C228.200928,463.746490 235.623520,463.076233 242.905411,458.344116 
	C246.929230,455.729248 245.422607,451.329468 244.643082,447.851593 
	C243.849319,444.310272 240.949722,446.580597 238.855362,446.935944 
	C227.545883,448.855011 222.501083,445.320709 220.434052,434.985626 
	C219.163712,428.634064 219.512207,421.920807 219.491547,415.368835 
	C219.473938,409.783203 220.465820,404.161407 220.081482,398.620087 
	C219.756760,393.938080 221.260880,392.907990 225.596222,393.114594 
	C232.703964,393.453369 239.839630,393.206299 246.894379,393.206299 
	C246.894379,386.834473 246.894379,381.578949 246.894379,375.809265 
	C243.253448,375.528442 239.981812,375.131042 236.702820,375.056427 
	C231.482315,374.937592 226.256897,375.033844 220.928757,374.926270 
M684.500000,319.000336 
	C730.610229,318.892883 776.720520,318.784912 822.830750,318.678375 
	C832.996826,318.654877 843.167725,318.825989 853.327637,318.565063 
	C864.554199,318.276764 871.680481,310.440094 871.607117,299.308502 
	C871.356628,261.318176 870.912476,223.325378 871.170288,185.337769 
	C871.250977,173.444977 864.025635,164.401703 850.201538,164.505157 
	C798.720154,164.890427 747.235596,164.868896 695.752258,164.982956 
	C694.330261,164.986099 692.907898,164.795883 691.368652,164.687592 
	C691.368652,153.350998 691.368652,142.437317 691.368652,130.863770 
	C751.411621,130.863770 811.103638,130.863770 870.876465,130.863770 
	C870.876465,116.068924 871.053467,101.933228 870.802734,87.805138 
	C870.674988,80.606750 867.834290,74.425316 860.965820,71.175507 
	C858.243774,69.887558 855.001221,69.106461 851.994202,69.102051 
	C795.694519,69.019440 739.394592,69.076904 683.094727,69.135551 
	C671.622681,69.147507 660.150574,69.264290 648.678833,69.367455 
	C636.599548,69.476082 629.712219,76.137505 629.420776,87.956581 
	C629.363220,90.288330 629.335083,92.621635 629.342896,94.954056 
	C629.462952,130.940979 629.629395,166.927826 629.696899,202.914856 
	C629.720520,215.504593 636.340576,222.367355 648.937256,222.339478 
	C689.263611,222.250229 729.589783,222.104797 769.916077,222.001205 
	C783.029663,221.967529 796.143372,221.995926 809.609375,221.995926 
	C809.609375,233.869446 809.609375,245.221588 809.609375,256.907928 
	C787.060181,256.907928 764.920654,256.894684 742.781189,256.910889 
	C706.131897,256.937744 669.482483,256.949341 632.834045,257.143066 
	C631.328857,257.151031 629.221985,258.594482 628.438782,259.965210 
	C625.068420,265.864655 622.127319,272.007599 618.957336,278.023651 
	C612.242554,290.767212 612.223938,290.758972 597.977539,289.940308 
	C597.660278,289.922028 597.351562,289.753754 596.337708,289.435059 
	C596.337708,248.260208 596.337708,206.861603 596.337708,165.360626 
	C548.512817,165.360626 501.391113,165.360626 454.257874,165.360626 
	C454.257874,184.646149 454.257874,203.547577 454.257874,222.754044 
	C483.218048,222.754044 511.917206,222.754044 540.725464,222.754044 
	C540.725464,234.291656 540.725464,245.521301 540.725464,256.867126 
	C500.473572,256.867126 460.495728,256.867126 420.342743,256.867126 
	C420.342743,214.994293 420.342743,173.597672 420.342743,131.522858 
	C479.060364,131.522858 537.438599,131.522858 596.001038,131.522858 
	C596.001038,117.534538 595.569641,104.206261 596.127747,90.919540 
	C596.640137,78.720261 589.225098,69.284111 574.714905,69.487869 
	C540.225342,69.972183 505.727295,69.878731 471.232513,69.949905 
	C350.779602,70.198433 230.326630,70.420578 109.873672,70.644386 
	C96.002991,70.670158 88.947746,77.547585 89.017166,91.316193 
	C89.206017,128.769836 89.469917,166.223129 89.713127,203.676498 
	C89.798347,216.801758 96.433075,223.483887 109.783981,223.479660 
	C145.444382,223.468384 181.104721,223.313904 216.765137,223.240189 
	C232.231201,223.208221 247.697403,223.234848 263.581909,223.234848 
	C263.581909,234.659042 263.581909,245.893890 263.581909,257.961304 
	C205.764816,257.961304 147.926880,257.961304 89.999184,257.961304 
	C89.999184,272.786713 90.018822,286.784943 89.993416,300.783112 
	C89.970123,313.617188 99.283791,320.206238 109.724968,320.132782 
	C153.555054,319.824402 197.388901,320.103088 241.220657,319.955078 
	C263.999023,319.878143 286.782349,319.583801 309.550201,318.927917 
	C318.280182,318.676361 324.999237,310.780792 324.974365,301.873016 
	C324.865509,262.890289 324.719543,223.907410 324.450073,184.925522 
	C324.365143,172.637894 316.982574,165.694199 304.617676,165.718430 
	C256.626190,165.812515 208.634720,165.904953 160.643250,165.997162 
	C158.379959,166.001511 156.116669,165.997726 153.683136,165.997726 
	C153.683136,154.463913 153.683136,143.552460 153.683136,132.210434 
	C210.884979,132.210434 267.815918,132.210434 324.625214,132.210434 
	C329.862793,122.127304 334.839020,112.400856 339.998932,102.772858 
	C340.765442,101.342628 342.315155,99.480385 343.644348,99.357971 
	C348.229309,98.935692 352.877075,99.195442 357.749817,99.195442 
	C357.849945,101.161026 357.981598,102.618629 357.989838,104.076927 
	C358.099945,123.569550 358.191101,143.062271 358.290253,162.554947 
	C358.525848,208.882065 358.756897,255.209229 359.025818,301.536163 
	C359.035309,303.166748 359.208374,304.861633 359.678467,306.413513 
	C362.414032,315.444122 368.492889,319.404877 379.525391,319.391388 
	C480.850250,319.267639 582.175110,319.132294 684.500000,319.000336 
M398.099152,432.073700 
	C398.554047,432.962585 399.124573,433.811768 399.445801,434.746582 
	C402.548035,443.774689 406.604767,451.817108 415.165558,457.383514 
	C423.285797,462.663452 438.640900,464.530182 446.862335,459.418701 
	C451.781342,456.360474 456.309357,452.673309 461.007782,449.272736 
	C462.727661,452.021820 464.232269,455.084930 466.377747,457.601715 
	C467.603088,459.039093 469.805756,459.906647 471.719513,460.305573 
	C472.188354,460.403259 473.900116,457.665131 473.917633,456.217255 
	C473.971283,451.778717 473.309143,447.336456 473.235199,442.890472 
	C473.083527,433.772888 473.136963,424.652008 473.099426,415.532471 
	C473.052185,404.046417 472.976654,392.560364 472.953186,381.074280 
	C472.927490,368.507690 472.947327,355.941040 472.947327,343.449341 
	C467.576752,343.449341 461.859863,343.449341 455.098663,343.449341 
	C455.098663,349.666260 455.098663,355.425262 455.098663,361.184265 
	C455.098663,367.089569 455.098663,372.994843 455.098663,380.178925 
	C451.452332,378.501862 449.073669,377.526855 446.803497,376.343719 
	C435.058502,370.222626 418.987671,373.585297 410.242188,382.332367 
	C396.507233,396.069763 394.540680,413.052032 398.099152,432.073700 
M630.089539,512.426270 
	C618.220337,517.514954 610.850342,526.439270 607.779968,538.899231 
	C606.918823,542.393738 606.351013,545.984009 605.948242,549.564087 
	C603.927673,567.523865 609.454956,582.661926 624.150452,593.440369 
	C634.686096,601.167786 648.481018,601.525024 659.946228,593.485352 
	C663.203613,591.201172 666.393616,588.820984 669.703552,586.420227 
	C670.567200,587.309814 671.604126,588.164062 672.374329,589.213928 
	C674.205566,591.710205 675.709045,594.483032 677.777222,596.749695 
	C678.490784,597.531799 680.520630,597.380615 681.871460,597.166260 
	C682.335327,597.092712 682.875244,595.519287 682.849060,594.646973 
	C682.618408,586.962952 682.075928,579.284363 681.998230,571.600403 
	C681.884644,560.369263 682.053528,549.134766 682.148254,537.902100 
	C682.299316,519.987366 682.564270,502.072723 682.507629,484.158905 
	C682.503418,482.820312 680.437561,480.504700 679.114441,480.336182 
	C674.971436,479.808441 670.707336,479.879608 666.532776,480.228577 
	C665.631409,480.303925 664.292542,482.473907 664.215637,483.743317 
	C663.958557,487.982941 664.205444,492.251648 664.217407,496.509338 
	C664.236694,503.372559 664.222595,510.235840 664.222595,518.540222 
	C653.121704,511.039307 642.639099,507.224762 630.089539,512.426270 
M114.021996,518.692505 
	C113.684952,514.713257 113.131874,510.738037 113.056297,506.753815 
	C112.903793,498.714752 113.010864,490.670746 113.010864,481.891968 
	C108.842911,481.602844 104.744904,481.409515 100.666908,481.011353 
	C96.146713,480.570007 95.277702,483.383148 95.331825,486.881836 
	C95.480659,496.504578 95.980423,506.127594 95.900078,515.746826 
	C95.789360,529.002563 95.010910,542.254761 95.007828,555.508606 
	C95.004898,568.093140 95.564911,580.680420 96.065468,593.259033 
	C96.129211,594.860779 97.329414,596.417297 98.003105,597.994812 
	C100.022118,596.949646 102.361488,596.249207 103.966019,594.758057 
	C105.437836,593.390259 105.789978,590.813416 107.267029,589.457153 
	C108.165672,588.632019 111.102463,588.405945 111.691223,589.109436 
	C119.276344,598.173523 129.312485,601.341248 140.382629,599.797180 
	C149.806778,598.482727 158.185349,594.185669 163.371109,585.361267 
	C167.330322,578.623962 170.960495,571.998779 171.778259,563.829529 
	C172.403503,557.583496 173.989960,551.610840 171.336594,545.469360 
	C169.691925,541.662598 167.644333,537.738586 167.272690,533.728577 
	C166.216400,522.331299 156.557556,517.815063 149.049545,514.022217 
	C137.810516,508.344635 125.327782,510.213837 114.021996,518.692505 
M514.481323,596.044006 
	C531.677490,604.512634 545.594910,598.084290 558.108704,585.740417 
	C560.278259,589.041931 561.840637,591.985657 563.964600,594.444214 
	C565.290405,595.978882 567.463684,596.781433 569.256714,597.912476 
	C569.862732,596.223511 570.976013,594.540283 570.994995,592.844727 
	C571.153442,578.688354 571.121643,564.529785 571.124939,550.371826 
	C571.127502,539.404968 570.979248,528.436218 571.146423,517.472168 
	C571.205933,513.562988 570.122681,512.100891 565.896179,511.780853 
	C560.299500,511.357025 558.976562,514.932495 557.311157,518.721741 
	C555.317017,523.258850 552.563782,524.476135 550.372803,521.567444 
	C546.905640,516.964478 542.420593,514.456116 537.162476,512.178772 
	C529.301086,508.774017 521.712769,509.921875 514.521362,512.450562 
	C505.612213,515.583374 499.639160,522.547180 495.193146,530.976868 
	C490.492096,539.890015 488.196960,549.535522 489.540802,559.113220 
	C491.743927,574.815063 498.552856,588.352356 514.481323,596.044006 
M724.516357,586.985474 
	C730.415283,591.008850 736.017151,595.292358 743.160278,597.391724 
	C759.705139,602.254333 779.343323,596.769958 788.961304,583.829651 
	C788.371704,582.950989 787.632202,582.072876 787.136047,581.073792 
	C783.544067,573.841248 780.478821,573.083435 774.072937,577.258301 
	C765.445251,582.881042 756.060730,583.874817 746.645874,579.733337 
	C737.118164,575.542175 732.400085,567.845886 732.351257,557.046692 
	C738.237183,557.046692 743.955078,557.082153 749.672424,557.038330 
	C757.984558,556.974609 766.297180,556.901855 774.607788,556.738831 
	C779.478149,556.643250 784.367188,556.566345 789.198792,556.035461 
	C790.506042,555.891785 792.619385,554.195984 792.699097,553.092468 
	C794.040222,534.523193 787.008850,521.809204 771.220459,513.652832 
	C763.273438,509.547333 754.851990,509.271729 746.142517,510.877777 
	C735.155151,512.903992 726.653809,518.436035 720.615601,527.775208 
	C713.990540,538.022095 711.877075,549.139343 712.738525,561.355347 
	C713.446594,571.396545 718.986389,578.670776 724.516357,586.985474 
M581.494202,441.046936 
	C580.126709,439.520264 578.759155,437.993591 577.408630,436.485840 
	C568.498352,442.613770 560.171265,447.783112 548.451111,444.790070 
	C539.860352,442.596283 529.233459,432.341705 529.602051,424.022156 
	C529.663025,422.646454 531.845398,420.310181 533.174133,420.216492 
	C541.750366,419.611877 550.361084,419.319336 558.961792,419.289398 
	C568.015198,419.257904 577.074707,419.840820 586.119568,419.632751 
	C587.661255,419.597229 590.443237,416.915192 590.418823,415.494110 
	C590.329590,410.291473 590.012390,404.881409 588.473328,399.958221 
	C585.069763,389.070740 577.818176,381.414215 567.288330,376.561859 
	C547.691772,367.531403 523.696777,375.666107 514.192749,397.759369 
	C509.440826,408.805786 508.951050,420.479065 512.166626,432.120972 
	C515.919495,445.708099 524.276428,455.428589 537.767456,459.846741 
	C552.325378,464.614288 566.243652,463.120300 579.349182,454.466949 
	C587.925476,448.804138 588.153564,449.149567 581.494202,441.046936 
M200.689377,567.038147 
	C200.801254,567.974731 200.750473,568.967224 201.050385,569.839111 
	C203.779785,577.774353 208.276291,584.361328 214.535187,590.150391 
	C225.654678,600.434998 238.826813,602.989685 252.064255,598.003601 
	C271.642731,590.629089 277.782349,577.535400 280.067139,558.842896 
	C281.117249,550.251404 278.554932,542.211304 274.752655,534.791443 
	C269.541992,524.623169 262.529205,516.228577 250.609955,513.023376 
	C233.351379,508.382446 220.294434,512.409607 208.981888,526.311768 
	C199.272995,538.243225 196.823425,551.599365 200.689377,567.038147 
M285.199982,425.412598 
	C285.240326,428.383423 284.225586,431.959534 285.517944,434.212067 
	C289.467316,441.095734 291.201965,448.984375 297.797729,454.782867 
	C305.610657,461.651428 313.828247,463.350037 323.519470,462.337189 
	C331.934448,461.457733 338.117065,456.603638 344.467834,451.783173 
	C345.433258,451.050415 348.047455,450.854736 348.598328,451.507843 
	C350.490906,453.751495 351.616486,456.629333 353.425903,458.961670 
	C354.245453,460.018158 356.116943,461.042419 357.268036,460.820465 
	C358.266296,460.627930 359.572235,458.683075 359.621979,457.466858 
	C359.927612,449.993683 360.063660,442.505646 359.973083,435.026001 
	C359.840942,424.119598 359.385468,413.217255 359.226654,402.310883 
	C359.097107,393.413483 359.200287,384.512695 359.200287,374.991089 
	C354.677948,374.991089 350.053741,375.137787 345.443939,374.943329 
	C341.936523,374.795380 340.910706,376.955170 340.951385,379.641815 
	C341.006378,383.268524 341.902435,386.884155 341.935883,390.509155 
	C342.029144,400.619446 342.002625,410.735474 341.758148,420.842804 
	C341.550232,429.437561 338.936859,436.902405 331.393250,442.142700 
	C325.460724,446.263824 315.052979,445.708801 310.214661,440.657135 
	C309.631073,440.047852 308.292023,440.162201 307.668213,440.022766 
	C306.836212,437.807495 305.994995,435.510071 305.110443,433.229431 
	C304.305695,431.154541 302.878784,429.135437 302.741089,427.025513 
	C302.443207,422.460419 302.898041,417.852081 302.860748,413.262909 
	C302.772827,402.447906 302.595978,391.633453 302.414734,380.819458 
	C302.349640,376.934753 301.367706,374.054871 296.392609,374.914215 
	C294.128418,375.305298 291.730499,375.092163 289.408234,374.933350 
	C286.556793,374.738373 285.185944,375.516510 285.207367,378.766510 
	C285.308044,394.055878 285.195770,409.346619 285.199982,425.412598 
M703.331787,420.421417 
	C703.277649,416.412720 703.796814,412.291260 703.035522,408.421692 
	C701.881836,402.557556 700.475830,396.578461 698.018677,391.174957 
	C694.542297,383.530273 689.491638,376.615631 680.729919,374.483215 
	C667.227295,371.196991 654.760559,373.411438 644.319336,383.283600 
	C641.902100,385.569061 640.102478,385.722229 638.707520,382.318207 
	C638.274170,381.260742 637.647949,380.198792 636.854248,379.389679 
	C635.130005,377.631989 633.240967,376.035950 631.419250,374.373840 
	C630.277283,376.922150 629.121887,379.464691 628.013306,382.027435 
	C627.897766,382.294464 628.082642,382.680847 628.088562,383.012543 
	C628.344971,397.356903 628.671448,411.700531 628.825439,426.045990 
	C628.945190,437.203827 628.849365,448.364014 628.849365,460.157074 
	C634.092590,460.157074 638.695557,460.318726 643.270874,460.034546 
	C644.312378,459.969818 645.851379,458.513641 646.126160,457.434387 
	C646.726990,455.074707 646.851562,452.544952 646.838989,450.086334 
	C646.781067,438.729462 646.616760,427.373077 646.476318,416.016693 
	C646.361572,406.733490 647.794495,398.966461 656.906982,393.016785 
	C667.115662,386.351318 682.690430,392.970490 683.769165,404.099030 
	C685.217041,419.036163 685.228088,434.114075 685.796143,449.133820 
	C685.927246,452.600952 685.815491,456.077240 685.815491,460.247955 
	C690.960022,460.247955 695.304810,460.337646 699.643250,460.210907 
	C701.881592,460.145508 703.388916,459.723572 703.333740,456.463928 
	C703.134460,444.675964 703.474670,432.878876 703.331787,420.421417 
M435.304596,511.052521 
	C434.582092,509.299835 433.294739,507.565613 433.236694,505.791168 
	C433.007080,498.773895 432.928619,491.731812 433.294617,484.725067 
	C433.434296,482.050964 433.205322,479.379120 430.440063,480.323730 
	C425.738281,481.929901 419.753662,477.923920 416.198669,483.640778 
	C415.811646,484.263092 416.010162,485.270416 415.995758,486.100189 
	C415.878204,492.866394 415.633148,499.634705 415.722961,506.398438 
	C415.772095,510.097900 414.554871,511.724731 410.647675,511.946136 
	C399.881958,512.556213 399.890411,512.700073 399.998016,523.858826 
	C400.004456,524.525391 400.046906,525.195740 399.993713,525.858032 
	C399.755615,528.823303 401.033569,530.145081 404.070251,530.034546 
	C406.893829,529.931763 409.817780,529.728333 412.519867,530.346130 
	C413.886017,530.658447 415.792999,532.643555 415.856445,533.949951 
	C416.226105,541.565308 415.663208,549.242065 416.300751,556.823730 
	C416.996582,565.098694 416.292694,573.230896 419.568359,581.664490 
	C425.503632,596.945679 442.555969,603.527832 456.147156,595.692444 
	C461.404388,592.661621 459.531006,588.404541 458.864594,585.139221 
	C458.069977,581.245605 454.182587,583.611694 451.370300,583.579163 
	C447.485321,583.534241 442.898224,583.285217 439.898895,581.237976 
	C434.862915,577.800537 434.078949,571.780701 434.137634,565.813110 
	C434.249084,554.475037 434.169922,543.135071 434.169922,531.200928 
	C435.836792,530.872620 437.517487,530.297058 439.212280,530.252136 
	C445.036469,530.097534 450.872833,529.935913 456.690430,530.153870 
	C460.896179,530.311462 462.460236,528.587708 461.971741,524.571838 
	C461.696777,522.311340 460.923309,519.910706 461.394470,517.801025 
	C462.462067,513.020447 460.182953,511.829712 456.146759,511.779236 
	C449.419312,511.695099 442.692627,511.554108 435.304596,511.052521 
M313.325439,577.432495 
	C312.973328,578.534302 312.345581,579.629883 312.320648,580.739014 
	C312.245697,584.076538 311.074463,589.182739 312.724335,590.428101 
	C317.596191,594.105469 323.374634,597.533569 329.258698,598.664612 
	C335.833069,599.928467 343.016357,599.235107 349.746887,598.187317 
	C359.423981,596.680969 366.985809,591.263184 369.998871,581.671204 
	C371.414856,577.163391 371.705994,571.714050 370.628967,567.132812 
	C368.330811,557.357727 360.479736,552.447632 351.654816,549.044861 
	C346.096680,546.901550 340.366577,545.163208 334.937500,542.741272 
	C331.516357,541.215149 328.674011,538.819031 328.881683,534.215149 
	C329.082245,529.769043 331.993530,528.520264 335.462860,527.293579 
	C343.903564,524.309204 351.120422,528.220947 358.628021,530.939880 
	C360.476166,531.609253 363.629364,532.271240 364.544189,531.335266 
	C370.302246,525.444031 369.222443,520.259155 362.333130,515.794067 
	C352.423950,509.371765 341.648773,508.160736 330.804321,511.531677 
	C317.292633,515.731750 311.527222,521.079651 310.156708,534.203308 
	C308.808105,547.117737 314.810364,553.067444 328.130890,559.045837 
	C334.733734,562.009216 341.382446,564.893250 348.132477,567.496704 
	C351.825165,568.921021 353.860565,571.566528 352.779022,574.989807 
	C351.960846,577.579468 349.626129,580.406738 347.208405,581.629211 
	C341.732330,584.397827 335.879456,584.449219 329.918762,582.108154 
	C324.765717,580.084290 319.323242,578.797302 313.325439,577.432495 
M122.606667,389.917206 
	C125.053795,390.188751 127.587845,390.145996 129.930878,390.793915 
	C135.720322,392.394897 141.422241,394.312408 146.830246,396.000000 
	C148.832275,391.786285 150.588989,388.088867 152.346405,384.389954 
	C148.845917,382.118256 145.337814,379.406769 141.449371,377.451843 
	C138.171478,375.803894 134.524033,374.595337 130.907272,374.001068 
	C127.359818,373.418182 123.643982,373.898743 120.003311,373.837189 
	C109.505035,373.659790 95.378326,381.569763 92.867210,395.487701 
	C91.321182,404.056580 93.469154,411.260651 100.265251,416.423065 
	C104.394669,419.559875 109.415955,421.569916 114.149170,423.852722 
	C120.390228,426.862732 126.777710,429.569550 133.012543,432.591736 
	C134.133240,433.134979 135.541763,434.543182 135.585007,435.602356 
	C135.791245,440.653046 132.162079,445.052307 126.900322,445.932251 
	C123.559799,446.490875 119.938263,446.926910 116.702026,446.224091 
	C110.142532,444.799530 103.759193,442.563873 97.061363,440.591370 
	C96.367363,441.603973 94.763275,442.893433 94.683266,444.271393 
	C94.493675,447.536652 93.758492,452.234589 95.528435,453.849457 
	C99.410500,457.391541 104.449562,460.162323 109.485504,461.836243 
	C119.043221,465.013123 128.728027,463.955536 137.916779,459.822906 
	C144.591599,456.820984 154.318024,448.563171 153.871979,438.064758 
	C153.477524,428.780182 145.788773,416.838409 137.257248,413.713898 
	C129.785080,410.977356 122.212685,408.468719 114.926437,405.302673 
	C113.116676,404.516296 111.002083,401.470428 111.158958,399.646362 
	C111.748199,392.794586 114.441490,390.700226 122.606667,389.917206 
M754.914978,361.462982 
	C754.914978,365.720917 754.914978,369.978882 754.914978,374.102814 
	C750.047363,374.102814 746.329468,374.212128 742.621094,374.070343 
	C739.288574,373.942902 738.368591,375.681274 738.466309,378.615265 
	C738.546936,381.034637 738.613159,383.473022 738.409241,385.879547 
	C737.962708,391.148499 739.430786,392.769684 744.496338,392.569580 
	C747.829041,392.437958 751.171082,392.544708 755.075317,392.544708 
	C755.075317,403.045624 754.571289,412.558868 755.212524,421.994202 
	C755.898499,432.086823 755.866150,442.219879 762.812927,451.198700 
	C772.127319,463.237732 786.399597,464.672150 798.119141,456.222198 
	C802.182739,453.292328 798.537659,449.799469 798.425049,446.715485 
	C798.360840,444.956573 795.428406,444.299500 792.754272,445.525818 
	C785.637329,448.789612 774.740601,444.374756 774.432129,434.906555 
	C773.978210,420.975342 774.315002,407.018341 774.315002,392.038177 
	C779.903809,392.038177 785.645081,391.829865 791.360168,392.127075 
	C794.171631,392.273254 794.990662,391.211517 794.872986,388.785034 
	C794.712646,385.475739 793.819763,382.036163 794.447388,378.893372 
	C795.393616,374.154724 793.247192,373.983246 789.658813,374.133179 
	C784.279785,374.357910 778.884399,374.191620 773.304626,374.191620 
	C773.304626,364.428833 773.395569,355.531464 773.202026,346.640289 
	C773.174438,345.372162 771.835388,343.107361 770.989258,343.052216 
	C766.253479,342.743469 761.472961,342.834412 756.734802,343.170593 
	C756.055054,343.218811 755.061340,345.312958 755.002441,346.499481 
	C754.771545,351.149994 754.857056,355.816193 754.914978,361.462982 
M844.367920,554.983032 
	C844.559692,551.365051 844.761475,547.747620 844.941040,544.129028 
	C845.283020,537.237061 850.372986,531.164246 855.833862,529.759155 
	C863.310059,532.962402 859.347717,545.175476 870.887024,544.989868 
	C870.887024,534.075134 871.008301,523.730713 870.725098,513.397400 
	C870.691772,512.179688 868.304626,509.900940 867.234680,510.027344 
	C861.944214,510.652618 856.346008,511.068024 851.596558,513.203552 
	C846.866943,515.330200 843.015930,519.410889 838.771729,522.640869 
	C836.951599,519.614075 834.704285,516.862915 833.568176,513.711182 
	C832.426453,510.543671 830.013123,511.711090 828.228638,511.577820 
	C827.656189,511.535034 826.350952,514.317139 826.280762,515.848022 
	C826.071167,520.421265 826.370483,525.015137 826.357483,529.600586 
	C826.322815,541.862427 826.158936,554.124268 826.187866,566.385742 
	C826.202271,572.483215 827.213745,578.654114 826.564880,584.661194 
	C825.313538,596.246826 825.253723,596.582397 836.687256,597.075928 
	C838.172363,597.139954 839.666016,597.194824 841.147583,597.110535 
	C843.647644,596.968567 844.451294,596.291687 844.367371,593.122925 
	C844.037842,580.685974 844.460205,568.229065 844.367920,554.983032 
M539.859253,486.661102 
	C539.012146,492.321381 542.985107,495.380615 546.851257,497.641174 
	C550.448730,499.744690 554.379700,498.555450 557.825745,495.716888 
	C562.041504,492.244232 561.068481,488.190674 559.944214,483.941559 
	C558.614136,478.914581 553.610413,476.728912 550.443665,477.080688 
	C543.851196,477.813019 541.246155,479.618805 539.859253,486.661102 
M509.522125,478.050659 
	C507.685211,480.391998 505.237823,482.480042 504.139252,485.127716 
	C501.896179,490.533844 505.614746,496.934723 511.410004,498.655396 
	C515.980591,500.012421 522.685669,495.867065 524.013489,490.863342 
	C526.252319,482.426544 520.007935,476.518951 509.522125,478.050659 
z"/>
<path fill="#030303" opacity="1.000000" stroke="none" 
	d="
M684.000000,319.000366 
	C582.175110,319.132294 480.850250,319.267639 379.525391,319.391388 
	C368.492889,319.404877 362.414032,315.444122 359.678467,306.413513 
	C359.208374,304.861633 359.035309,303.166748 359.025818,301.536163 
	C358.756897,255.209229 358.525848,208.882065 358.290253,162.554947 
	C358.191101,143.062271 358.099945,123.569550 357.989838,104.076927 
	C357.981598,102.618629 357.849945,101.161026 357.749817,99.195442 
	C352.877075,99.195442 348.229309,98.935692 343.644348,99.357971 
	C342.315155,99.480385 340.765442,101.342628 339.998932,102.772858 
	C334.839020,112.400856 329.862793,122.127304 324.625214,132.210434 
	C267.815918,132.210434 210.884979,132.210434 153.683136,132.210434 
	C153.683136,143.552460 153.683136,154.463913 153.683136,165.997726 
	C156.116669,165.997726 158.379959,166.001511 160.643250,165.997162 
	C208.634720,165.904953 256.626190,165.812515 304.617676,165.718430 
	C316.982574,165.694199 324.365143,172.637894 324.450073,184.925522 
	C324.719543,223.907410 324.865509,262.890289 324.974365,301.873016 
	C324.999237,310.780792 318.280182,318.676361 309.550201,318.927917 
	C286.782349,319.583801 263.999023,319.878143 241.220657,319.955078 
	C197.388901,320.103088 153.555054,319.824402 109.724968,320.132782 
	C99.283791,320.206238 89.970123,313.617188 89.993416,300.783112 
	C90.018822,286.784943 89.999184,272.786713 89.999184,257.961304 
	C147.926880,257.961304 205.764816,257.961304 263.581909,257.961304 
	C263.581909,245.893890 263.581909,234.659042 263.581909,223.234848 
	C247.697403,223.234848 232.231201,223.208221 216.765137,223.240189 
	C181.104721,223.313904 145.444382,223.468384 109.783981,223.479660 
	C96.433075,223.483887 89.798347,216.801758 89.713127,203.676498 
	C89.469917,166.223129 89.206017,128.769836 89.017166,91.316193 
	C88.947746,77.547585 96.002991,70.670158 109.873672,70.644386 
	C230.326630,70.420578 350.779602,70.198433 471.232513,69.949905 
	C505.727295,69.878731 540.225342,69.972183 574.714905,69.487869 
	C589.225098,69.284111 596.640137,78.720261 596.127747,90.919540 
	C595.569641,104.206261 596.001038,117.534538 596.001038,131.522858 
	C537.438599,131.522858 479.060364,131.522858 420.342743,131.522858 
	C420.342743,173.597672 420.342743,214.994293 420.342743,256.867126 
	C460.495728,256.867126 500.473572,256.867126 540.725464,256.867126 
	C540.725464,245.521301 540.725464,234.291656 540.725464,222.754044 
	C511.917206,222.754044 483.218048,222.754044 454.257874,222.754044 
	C454.257874,203.547577 454.257874,184.646149 454.257874,165.360626 
	C501.391113,165.360626 548.512817,165.360626 596.337708,165.360626 
	C596.337708,206.861603 596.337708,248.260208 596.337708,289.435059 
	C597.351562,289.753754 597.660278,289.922028 597.977539,289.940308 
	C612.223938,290.758972 612.242554,290.767212 618.957336,278.023651 
	C622.127319,272.007599 625.068420,265.864655 628.438782,259.965210 
	C629.221985,258.594482 631.328857,257.151031 632.834045,257.143066 
	C669.482483,256.949341 706.131897,256.937744 742.781189,256.910889 
	C764.920654,256.894684 787.060181,256.907928 809.609375,256.907928 
	C809.609375,245.221588 809.609375,233.869446 809.609375,221.995926 
	C796.143372,221.995926 783.029663,221.967529 769.916077,222.001205 
	C729.589783,222.104797 689.263611,222.250229 648.937256,222.339478 
	C636.340576,222.367355 629.720520,215.504593 629.696899,202.914856 
	C629.629395,166.927826 629.462952,130.940979 629.342896,94.954056 
	C629.335083,92.621635 629.363220,90.288330 629.420776,87.956581 
	C629.712219,76.137505 636.599548,69.476082 648.678833,69.367455 
	C660.150574,69.264290 671.622681,69.147507 683.094727,69.135551 
	C739.394592,69.076904 795.694519,69.019440 851.994202,69.102051 
	C855.001221,69.106461 858.243774,69.887558 860.965820,71.175507 
	C867.834290,74.425316 870.674988,80.606750 870.802734,87.805138 
	C871.053467,101.933228 870.876465,116.068924 870.876465,130.863770 
	C811.103638,130.863770 751.411621,130.863770 691.368652,130.863770 
	C691.368652,142.437317 691.368652,153.350998 691.368652,164.687592 
	C692.907898,164.795883 694.330261,164.986099 695.752258,164.982956 
	C747.235596,164.868896 798.720154,164.890427 850.201538,164.505157 
	C864.025635,164.401703 871.250977,173.444977 871.170288,185.337769 
	C870.912476,223.325378 871.356628,261.318176 871.607117,299.308502 
	C871.680481,310.440094 864.554199,318.276764 853.327637,318.565063 
	C843.167725,318.825989 832.996826,318.654877 822.830750,318.678375 
	C776.720520,318.784912 730.610229,318.892883 684.000000,319.000366 
z"/>
<path fill="#9F9F9F" opacity="1.000000" stroke="none" 
	d="
M398.022003,431.660278 
	C394.540680,413.052032 396.507233,396.069763 410.242188,382.332367 
	C418.987671,373.585297 435.058502,370.222626 446.803497,376.343719 
	C449.073669,377.526855 451.452332,378.501862 455.098663,380.178925 
	C455.098663,372.994843 455.098663,367.089569 455.098663,361.184265 
	C455.098663,355.425262 455.098663,349.666260 455.098663,343.449341 
	C461.859863,343.449341 467.576752,343.449341 472.947327,343.449341 
	C472.947327,355.941040 472.927490,368.507690 472.953186,381.074280 
	C472.976654,392.560364 473.052185,404.046417 473.099426,415.532471 
	C473.136963,424.652008 473.083527,433.772888 473.235199,442.890472 
	C473.309143,447.336456 473.971283,451.778717 473.917633,456.217255 
	C473.900116,457.665131 472.188354,460.403259 471.719513,460.305573 
	C469.805756,459.906647 467.603088,459.039093 466.377747,457.601715 
	C464.232269,455.084930 462.727661,452.021820 461.007782,449.272736 
	C456.309357,452.673309 451.781342,456.360474 446.862335,459.418701 
	C438.640900,464.530182 423.285797,462.663452 415.165558,457.383514 
	C406.604767,451.817108 402.548035,443.774689 399.445801,434.746582 
	C399.124573,433.811768 398.554047,432.962585 398.022003,431.660278 
M426.627838,392.899719 
	C418.829895,399.139557 414.534729,407.260712 415.132324,417.231598 
	C415.502411,423.406616 416.259094,429.436523 419.654755,435.367828 
	C423.385986,441.885254 433.324432,446.952271 439.054596,445.187469 
	C446.787109,442.805969 450.675964,437.248749 452.932709,430.282593 
	C456.621582,418.895660 457.386200,407.936249 448.674805,397.815308 
	C444.587067,393.066071 440.317902,389.832367 434.090088,390.108185 
	C431.752441,390.211700 429.470612,391.575470 426.627838,392.899719 
z"/>
<path fill="#A3A3A3" opacity="1.000000" stroke="none" 
	d="
M630.459229,512.294128 
	C642.639099,507.224762 653.121704,511.039307 664.222595,518.540222 
	C664.222595,510.235840 664.236694,503.372559 664.217407,496.509338 
	C664.205444,492.251648 663.958557,487.982941 664.215637,483.743317 
	C664.292542,482.473907 665.631409,480.303925 666.532776,480.228577 
	C670.707336,479.879608 674.971436,479.808441 679.114441,480.336182 
	C680.437561,480.504700 682.503418,482.820312 682.507629,484.158905 
	C682.564270,502.072723 682.299316,519.987366 682.148254,537.902100 
	C682.053528,549.134766 681.884644,560.369263 681.998230,571.600403 
	C682.075928,579.284363 682.618408,586.962952 682.849060,594.646973 
	C682.875244,595.519287 682.335327,597.092712 681.871460,597.166260 
	C680.520630,597.380615 678.490784,597.531799 677.777222,596.749695 
	C675.709045,594.483032 674.205566,591.710205 672.374329,589.213928 
	C671.604126,588.164062 670.567200,587.309814 669.703552,586.420227 
	C666.393616,588.820984 663.203613,591.201172 659.946228,593.485352 
	C648.481018,601.525024 634.686096,601.167786 624.150452,593.440369 
	C609.454956,582.661926 603.927673,567.523865 605.948242,549.564087 
	C606.351013,545.984009 606.918823,542.393738 607.779968,538.899231 
	C610.850342,526.439270 618.220337,517.514954 630.459229,512.294128 
M663.869080,560.252197 
	C665.301697,551.541626 664.634888,543.025208 658.894958,536.053345 
	C656.058167,532.607727 651.992981,529.091309 647.855469,528.009644 
	C637.161499,525.213989 626.138428,533.733643 624.662537,545.114380 
	C623.491638,554.143188 623.784729,563.036011 627.870483,571.536804 
	C631.007324,578.063354 636.352783,582.213013 643.065002,582.172302 
	C647.627625,582.144653 653.360474,579.748169 656.414124,576.428101 
	C660.106750,572.413330 661.523010,566.304932 663.869080,560.252197 
z"/>
<path fill="#A3A3A3" opacity="1.000000" stroke="none" 
	d="
M114.399185,518.601807 
	C125.327782,510.213837 137.810516,508.344635 149.049545,514.022217 
	C156.557556,517.815063 166.216400,522.331299 167.272690,533.728577 
	C167.644333,537.738586 169.691925,541.662598 171.336594,545.469360 
	C173.989960,551.610840 172.403503,557.583496 171.778259,563.829529 
	C170.960495,571.998779 167.330322,578.623962 163.371109,585.361267 
	C158.185349,594.185669 149.806778,598.482727 140.382629,599.797180 
	C129.312485,601.341248 119.276344,598.173523 111.691223,589.109436 
	C111.102463,588.405945 108.165672,588.632019 107.267029,589.457153 
	C105.789978,590.813416 105.437836,593.390259 103.966019,594.758057 
	C102.361488,596.249207 100.022118,596.949646 98.003113,597.994812 
	C97.329414,596.417297 96.129211,594.860779 96.065468,593.259033 
	C95.564911,580.680420 95.004898,568.093140 95.007828,555.508606 
	C95.010910,542.254761 95.789360,529.002563 95.900078,515.746826 
	C95.980423,506.127594 95.480659,496.504578 95.331825,486.881836 
	C95.277702,483.383148 96.146713,480.570007 100.666908,481.011353 
	C104.744904,481.409515 108.842911,481.602844 113.010864,481.891968 
	C113.010864,490.670746 112.903793,498.714752 113.056297,506.753815 
	C113.131874,510.738037 113.684952,514.713257 114.399185,518.601807 
M153.046417,564.472412 
	C153.349762,559.260742 154.189178,554.011902 153.831070,548.846069 
	C153.290985,541.054993 149.094177,534.875977 143.003830,530.199524 
	C137.898056,526.279114 128.745041,527.584778 123.684631,531.683533 
	C115.241463,538.522278 113.306618,547.732056 113.125702,557.744568 
	C113.089119,559.769165 113.527611,561.802368 113.626945,562.720886 
	C114.391251,564.906921 115.201958,566.166443 115.211601,567.432129 
	C115.259628,573.738342 124.486855,582.515869 130.399521,582.988647 
	C141.322678,583.862244 148.879425,578.034058 153.046417,564.472412 
z"/>
<path fill="#A3A3A3" opacity="1.000000" stroke="none" 
	d="
M514.106445,595.996094 
	C498.552856,588.352356 491.743927,574.815063 489.540802,559.113220 
	C488.196960,549.535522 490.492096,539.890015 495.193146,530.976868 
	C499.639160,522.547180 505.612213,515.583374 514.521362,512.450562 
	C521.712769,509.921875 529.301086,508.774017 537.162476,512.178772 
	C542.420593,514.456116 546.905640,516.964478 550.372803,521.567444 
	C552.563782,524.476135 555.317017,523.258850 557.311157,518.721741 
	C558.976562,514.932495 560.299500,511.357025 565.896179,511.780853 
	C570.122681,512.100891 571.205933,513.562988 571.146423,517.472168 
	C570.979248,528.436218 571.127502,539.404968 571.124939,550.371826 
	C571.121643,564.529785 571.153442,578.688354 570.994995,592.844727 
	C570.976013,594.540283 569.862732,596.223511 569.256714,597.912476 
	C567.463684,596.781433 565.290405,595.978882 563.964600,594.444214 
	C561.840637,591.985657 560.278259,589.041931 558.108704,585.740417 
	C545.594910,598.084290 531.677490,604.512634 514.106445,595.996094 
M508.538605,552.974854 
	C507.437714,560.178650 509.635834,566.506653 513.217285,572.682983 
	C516.540222,578.413391 524.868042,583.339966 531.216187,582.725098 
	C547.239990,581.173279 555.541443,561.732544 551.925476,548.020447 
	C550.433228,542.361755 547.765564,537.819702 544.060120,533.378601 
	C540.110229,528.644531 532.353088,525.549072 526.585205,527.664673 
	C514.473755,532.107056 509.426910,539.044495 508.538605,552.974854 
z"/>
<path fill="#A1A1A2" opacity="1.000000" stroke="none" 
	d="
M724.269409,586.716675 
	C718.986389,578.670776 713.446594,571.396545 712.738525,561.355347 
	C711.877075,549.139343 713.990540,538.022095 720.615601,527.775208 
	C726.653809,518.436035 735.155151,512.903992 746.142517,510.877777 
	C754.851990,509.271729 763.273438,509.547333 771.220459,513.652832 
	C787.008850,521.809204 794.040222,534.523193 792.699097,553.092468 
	C792.619385,554.195984 790.506042,555.891785 789.198792,556.035461 
	C784.367188,556.566345 779.478149,556.643250 774.607788,556.738831 
	C766.297180,556.901855 757.984558,556.974609 749.672424,557.038330 
	C743.955078,557.082153 738.237183,557.046692 732.351257,557.046692 
	C732.400085,567.845886 737.118164,575.542175 746.645874,579.733337 
	C756.060730,583.874817 765.445251,582.881042 774.072937,577.258301 
	C780.478821,573.083435 783.544067,573.841248 787.136047,581.073792 
	C787.632202,582.072876 788.371704,582.950989 788.961304,583.829651 
	C779.343323,596.769958 759.705139,602.254333 743.160278,597.391724 
	C736.017151,595.292358 730.415283,591.008850 724.269409,586.716675 
M758.266174,541.211243 
	C762.829468,541.211243 767.392761,541.211243 771.912109,541.211243 
	C772.640564,535.291931 766.346741,527.701904 760.402405,526.987122 
	C747.971985,525.492310 736.712952,530.718323 735.489319,541.036865 
	C742.824646,541.036865 750.109436,541.036865 758.266174,541.211243 
z"/>
<path fill="#A3A3A3" opacity="1.000000" stroke="none" 
	d="
M581.758789,441.289124 
	C588.153564,449.149567 587.925476,448.804138 579.349182,454.466949 
	C566.243652,463.120300 552.325378,464.614288 537.767456,459.846741 
	C524.276428,455.428589 515.919495,445.708099 512.166626,432.120972 
	C508.951050,420.479065 509.440826,408.805786 514.192749,397.759369 
	C523.696777,375.666107 547.691772,367.531403 567.288330,376.561859 
	C577.818176,381.414215 585.069763,389.070740 588.473328,399.958221 
	C590.012390,404.881409 590.329590,410.291473 590.418823,415.494110 
	C590.443237,416.915192 587.661255,419.597229 586.119568,419.632751 
	C577.074707,419.840820 568.015198,419.257904 558.961792,419.289398 
	C550.361084,419.319336 541.750366,419.611877 533.174133,420.216492 
	C531.845398,420.310181 529.663025,422.646454 529.602051,424.022156 
	C529.233459,432.341705 539.860352,442.596283 548.451111,444.790070 
	C560.171265,447.783112 568.498352,442.613770 577.408630,436.485840 
	C578.759155,437.993591 580.126709,439.520264 581.758789,441.289124 
M551.072998,389.978516 
	C541.806519,389.953491 533.563171,396.613464 533.381165,404.773376 
	C544.347656,404.773376 555.312134,404.888519 566.268921,404.650177 
	C567.926880,404.614105 569.549072,402.933075 571.455505,401.862610 
	C570.075073,400.240051 568.866455,399.287292 568.274353,398.041504 
	C565.852539,392.945892 557.836487,388.876038 551.072998,389.978516 
z"/>
<path fill="#A4A4A6" opacity="1.000000" stroke="none" 
	d="
M200.592316,566.674927 
	C196.823425,551.599365 199.272995,538.243225 208.981888,526.311768 
	C220.294434,512.409607 233.351379,508.382446 250.609955,513.023376 
	C262.529205,516.228577 269.541992,524.623169 274.752655,534.791443 
	C278.554932,542.211304 281.117249,550.251404 280.067139,558.842896 
	C277.782349,577.535400 271.642731,590.629089 252.064255,598.003601 
	C238.826813,602.989685 225.654678,600.434998 214.535187,590.150391 
	C208.276291,584.361328 203.779785,577.774353 201.050385,569.839111 
	C200.750473,568.967224 200.801254,567.974731 200.592316,566.674927 
M224.983994,576.410950 
	C226.148865,577.279663 227.392029,578.061646 228.465561,579.031494 
	C234.246033,584.253784 245.638504,584.336609 251.356415,579.124756 
	C258.086792,572.990051 261.517151,565.212402 261.879547,556.253113 
	C262.195984,548.429626 259.232269,541.910339 254.600662,535.325073 
	C250.512451,529.512390 245.253143,527.976501 239.638763,527.850159 
	C230.271042,527.639404 219.699448,537.465881 218.188629,546.659363 
	C216.441071,557.293518 217.606415,567.399902 224.983994,576.410950 
z"/>
<path fill="#A2A2A2" opacity="1.000000" stroke="none" 
	d="
M285.179718,425.024719 
	C285.195770,409.346619 285.308044,394.055878 285.207367,378.766510 
	C285.185944,375.516510 286.556793,374.738373 289.408234,374.933350 
	C291.730499,375.092163 294.128418,375.305298 296.392609,374.914215 
	C301.367706,374.054871 302.349640,376.934753 302.414734,380.819458 
	C302.595978,391.633453 302.772827,402.447906 302.860748,413.262909 
	C302.898041,417.852081 302.443207,422.460419 302.741089,427.025513 
	C302.878784,429.135437 304.305695,431.154541 305.110443,433.229431 
	C305.994995,435.510071 306.836212,437.807495 307.668213,440.022766 
	C308.292023,440.162201 309.631073,440.047852 310.214661,440.657135 
	C315.052979,445.708801 325.460724,446.263824 331.393250,442.142700 
	C338.936859,436.902405 341.550232,429.437561 341.758148,420.842804 
	C342.002625,410.735474 342.029144,400.619446 341.935883,390.509155 
	C341.902435,386.884155 341.006378,383.268524 340.951385,379.641815 
	C340.910706,376.955170 341.936523,374.795380 345.443939,374.943329 
	C350.053741,375.137787 354.677948,374.991089 359.200287,374.991089 
	C359.200287,384.512695 359.097107,393.413483 359.226654,402.310883 
	C359.385468,413.217255 359.840942,424.119598 359.973083,435.026001 
	C360.063660,442.505646 359.927612,449.993683 359.621979,457.466858 
	C359.572235,458.683075 358.266296,460.627930 357.268036,460.820465 
	C356.116943,461.042419 354.245453,460.018158 353.425903,458.961670 
	C351.616486,456.629333 350.490906,453.751495 348.598328,451.507843 
	C348.047455,450.854736 345.433258,451.050415 344.467834,451.783173 
	C338.117065,456.603638 331.934448,461.457733 323.519470,462.337189 
	C313.828247,463.350037 305.610657,461.651428 297.797729,454.782867 
	C291.201965,448.984375 289.467316,441.095734 285.517944,434.212067 
	C284.225586,431.959534 285.240326,428.383423 285.179718,425.024719 
z"/>
<path fill="#A0A0A0" opacity="1.000000" stroke="none" 
	d="
M703.471497,420.753326 
	C703.474670,432.878876 703.134460,444.675964 703.333740,456.463928 
	C703.388916,459.723572 701.881592,460.145508 699.643250,460.210907 
	C695.304810,460.337646 690.960022,460.247955 685.815491,460.247955 
	C685.815491,456.077240 685.927246,452.600952 685.796143,449.133820 
	C685.228088,434.114075 685.217041,419.036163 683.769165,404.099030 
	C682.690430,392.970490 667.115662,386.351318 656.906982,393.016785 
	C647.794495,398.966461 646.361572,406.733490 646.476318,416.016693 
	C646.616760,427.373077 646.781067,438.729462 646.838989,450.086334 
	C646.851562,452.544952 646.726990,455.074707 646.126160,457.434387 
	C645.851379,458.513641 644.312378,459.969818 643.270874,460.034546 
	C638.695557,460.318726 634.092590,460.157074 628.849365,460.157074 
	C628.849365,448.364014 628.945190,437.203827 628.825439,426.045990 
	C628.671448,411.700531 628.344971,397.356903 628.088562,383.012543 
	C628.082642,382.680847 627.897766,382.294464 628.013306,382.027435 
	C629.121887,379.464691 630.277283,376.922150 631.419312,374.373840 
	C633.240967,376.035950 635.130005,377.631989 636.854248,379.389679 
	C637.647949,380.198792 638.274170,381.260742 638.707520,382.318207 
	C640.102478,385.722229 641.902100,385.569061 644.319336,383.283600 
	C654.760559,373.411438 667.227295,371.196991 680.729919,374.483215 
	C689.491638,376.615631 694.542297,383.530273 698.018677,391.174957 
	C700.475830,396.578461 701.881836,402.557556 703.035522,408.421692 
	C703.796814,412.291260 703.277649,416.412720 703.471497,420.753326 
z"/>
<path fill="#A3A3A3" opacity="1.000000" stroke="none" 
	d="
M435.635101,511.244812 
	C442.692627,511.554108 449.419312,511.695099 456.146759,511.779236 
	C460.182953,511.829712 462.462067,513.020447 461.394470,517.801025 
	C460.923309,519.910706 461.696777,522.311340 461.971741,524.571838 
	C462.460236,528.587708 460.896179,530.311462 456.690430,530.153870 
	C450.872833,529.935913 445.036469,530.097534 439.212280,530.252136 
	C437.517487,530.297058 435.836792,530.872620 434.169922,531.200928 
	C434.169922,543.135071 434.249084,554.475037 434.137634,565.813110 
	C434.078949,571.780701 434.862915,577.800537 439.898895,581.237976 
	C442.898224,583.285217 447.485321,583.534241 451.370300,583.579163 
	C454.182587,583.611694 458.069977,581.245605 458.864594,585.139221 
	C459.531006,588.404541 461.404388,592.661621 456.147156,595.692444 
	C442.555969,603.527832 425.503632,596.945679 419.568359,581.664490 
	C416.292694,573.230896 416.996582,565.098694 416.300751,556.823730 
	C415.663208,549.242065 416.226105,541.565308 415.856445,533.949951 
	C415.792999,532.643555 413.886017,530.658447 412.519867,530.346130 
	C409.817780,529.728333 406.893829,529.931763 404.070251,530.034546 
	C401.033569,530.145081 399.755615,528.823303 399.993713,525.858032 
	C400.046906,525.195740 400.004456,524.525391 399.998016,523.858826 
	C399.890411,512.700073 399.881958,512.556213 410.647675,511.946136 
	C414.554871,511.724731 415.772095,510.097900 415.722961,506.398438 
	C415.633148,499.634705 415.878204,492.866394 415.995758,486.100189 
	C416.010162,485.270416 415.811646,484.263092 416.198669,483.640778 
	C419.753662,477.923920 425.738281,481.929901 430.440063,480.323730 
	C433.205322,479.379120 433.434296,482.050964 433.294617,484.725067 
	C432.928619,491.731812 433.007080,498.773895 433.236694,505.791168 
	C433.294739,507.565613 434.582092,509.299835 435.635101,511.244812 
z"/>
<path fill="#A3A3A3" opacity="1.000000" stroke="none" 
	d="
M313.667053,577.308594 
	C319.323242,578.797302 324.765717,580.084290 329.918762,582.108154 
	C335.879456,584.449219 341.732330,584.397827 347.208405,581.629211 
	C349.626129,580.406738 351.960846,577.579468 352.779022,574.989807 
	C353.860565,571.566528 351.825165,568.921021 348.132477,567.496704 
	C341.382446,564.893250 334.733734,562.009216 328.130890,559.045837 
	C314.810364,553.067444 308.808105,547.117737 310.156708,534.203308 
	C311.527222,521.079651 317.292633,515.731750 330.804321,511.531677 
	C341.648773,508.160736 352.423950,509.371765 362.333130,515.794067 
	C369.222443,520.259155 370.302246,525.444031 364.544189,531.335266 
	C363.629364,532.271240 360.476166,531.609253 358.628021,530.939880 
	C351.120422,528.220947 343.903564,524.309204 335.462860,527.293579 
	C331.993530,528.520264 329.082245,529.769043 328.881683,534.215149 
	C328.674011,538.819031 331.516357,541.215149 334.937500,542.741272 
	C340.366577,545.163208 346.096680,546.901550 351.654816,549.044861 
	C360.479736,552.447632 368.330811,557.357727 370.628967,567.132812 
	C371.705994,571.714050 371.414856,577.163391 369.998871,581.671204 
	C366.985809,591.263184 359.423981,596.680969 349.746887,598.187317 
	C343.016357,599.235107 335.833069,599.928467 329.258698,598.664612 
	C323.374634,597.533569 317.596191,594.105469 312.724335,590.428101 
	C311.074463,589.182739 312.245697,584.076538 312.320648,580.739014 
	C312.345581,579.629883 312.973328,578.534302 313.667053,577.308594 
z"/>
<path fill="#A2A2A2" opacity="1.000000" stroke="none" 
	d="
M221.033569,375.039124 
	C226.256897,375.033844 231.482315,374.937592 236.702820,375.056427 
	C239.981812,375.131042 243.253448,375.528442 246.894379,375.809265 
	C246.894379,381.578949 246.894379,386.834473 246.894379,393.206299 
	C239.839630,393.206299 232.703964,393.453369 225.596222,393.114594 
	C221.260880,392.907990 219.756760,393.938080 220.081482,398.620087 
	C220.465820,404.161407 219.473938,409.783203 219.491547,415.368835 
	C219.512207,421.920807 219.163712,428.634064 220.434052,434.985626 
	C222.501083,445.320709 227.545883,448.855011 238.855362,446.935944 
	C240.949722,446.580597 243.849319,444.310272 244.643082,447.851593 
	C245.422607,451.329468 246.929230,455.729248 242.905411,458.344116 
	C235.623520,463.076233 228.200928,463.746490 219.568512,460.690765 
	C211.402206,457.800049 208.170120,451.066040 204.599625,444.922302 
	C202.232269,440.848816 202.705444,435.002930 202.344070,429.919434 
	C201.982407,424.831879 202.115707,419.705627 202.122314,414.596466 
	C202.128021,410.179138 202.418808,405.757721 202.299835,401.345764 
	C202.119080,394.642914 201.514297,394.139160 194.889175,393.744049 
	C194.565536,393.724762 194.256622,393.512909 193.930618,393.471680 
	C185.322723,392.383850 185.329147,392.386108 185.866653,383.575989 
	C185.957733,382.083130 186.093918,380.575348 185.982391,379.091492 
	C185.742737,375.902863 187.413925,374.954041 190.235565,375.198761 
	C190.727768,375.241455 191.213486,375.354095 191.704407,375.417175 
	C199.734863,376.448944 201.417892,375.057648 201.428574,367.105835 
	C201.435776,361.749756 201.357468,356.390015 201.150986,351.038300 
	C200.957748,346.030334 203.700180,343.457916 208.906479,343.762177 
	C212.027573,343.944550 215.168030,343.795654 219.054794,343.795654 
	C219.632263,354.102600 220.193344,364.116913 220.583694,374.533142 
	C220.441422,375.180359 220.469879,375.425629 220.498322,375.670898 
	C220.676727,375.460297 220.855148,375.249725 221.033569,375.039124 
z"/>
<path fill="#A3A3A3" opacity="1.000000" stroke="none" 
	d="
M122.159012,389.933533 
	C114.441490,390.700226 111.748199,392.794586 111.158958,399.646362 
	C111.002083,401.470428 113.116676,404.516296 114.926437,405.302673 
	C122.212685,408.468719 129.785080,410.977356 137.257248,413.713898 
	C145.788773,416.838409 153.477524,428.780182 153.871979,438.064758 
	C154.318024,448.563171 144.591599,456.820984 137.916779,459.822906 
	C128.728027,463.955536 119.043221,465.013123 109.485504,461.836243 
	C104.449562,460.162323 99.410500,457.391541 95.528435,453.849457 
	C93.758492,452.234589 94.493675,447.536652 94.683266,444.271393 
	C94.763275,442.893433 96.367363,441.603973 97.061363,440.591370 
	C103.759193,442.563873 110.142532,444.799530 116.702026,446.224091 
	C119.938263,446.926910 123.559799,446.490875 126.900322,445.932251 
	C132.162079,445.052307 135.791245,440.653046 135.585007,435.602356 
	C135.541763,434.543182 134.133240,433.134979 133.012543,432.591736 
	C126.777710,429.569550 120.390228,426.862732 114.149170,423.852722 
	C109.415955,421.569916 104.394669,419.559875 100.265251,416.423065 
	C93.469154,411.260651 91.321182,404.056580 92.867210,395.487701 
	C95.378326,381.569763 109.505035,373.659790 120.003311,373.837189 
	C123.643982,373.898743 127.359818,373.418182 130.907272,374.001068 
	C134.524033,374.595337 138.171478,375.803894 141.449371,377.451843 
	C145.337814,379.406769 148.845917,382.118256 152.346405,384.389954 
	C150.588989,388.088867 148.832275,391.786285 146.830246,396.000000 
	C141.422241,394.312408 135.720322,392.394897 129.930878,390.793915 
	C127.587845,390.145996 125.053795,390.188751 122.159012,389.933533 
z"/>
<path fill="#A2A2A2" opacity="1.000000" stroke="none" 
	d="
M754.869995,360.969788 
	C754.857056,355.816193 754.771545,351.149994 755.002441,346.499481 
	C755.061340,345.312958 756.055054,343.218811 756.734802,343.170593 
	C761.472961,342.834412 766.253479,342.743469 770.989258,343.052216 
	C771.835388,343.107361 773.174438,345.372162 773.202026,346.640289 
	C773.395569,355.531464 773.304626,364.428833 773.304626,374.191620 
	C778.884399,374.191620 784.279785,374.357910 789.658813,374.133179 
	C793.247192,373.983246 795.393616,374.154724 794.447388,378.893372 
	C793.819763,382.036163 794.712646,385.475739 794.872986,388.785034 
	C794.990662,391.211517 794.171631,392.273254 791.360168,392.127075 
	C785.645081,391.829865 779.903809,392.038177 774.315002,392.038177 
	C774.315002,407.018341 773.978210,420.975342 774.432129,434.906555 
	C774.740601,444.374756 785.637329,448.789612 792.754272,445.525818 
	C795.428406,444.299500 798.360840,444.956573 798.425049,446.715485 
	C798.537659,449.799469 802.182739,453.292328 798.119141,456.222198 
	C786.399597,464.672150 772.127319,463.237732 762.812927,451.198700 
	C755.866150,442.219879 755.898499,432.086823 755.212524,421.994202 
	C754.571289,412.558868 755.075317,403.045624 755.075317,392.544708 
	C751.171082,392.544708 747.829041,392.437958 744.496338,392.569580 
	C739.430786,392.769684 737.962708,391.148499 738.409241,385.879547 
	C738.613159,383.473022 738.546936,381.034637 738.466309,378.615265 
	C738.368591,375.681274 739.288574,373.942902 742.621094,374.070343 
	C746.329468,374.212128 750.047363,374.102814 754.914978,374.102814 
	C754.914978,369.978882 754.914978,365.720917 754.869995,360.969788 
z"/>
<path fill="#A2A2A2" opacity="1.000000" stroke="none" 
	d="
M844.485596,555.381348 
	C844.460205,568.229065 844.037842,580.685974 844.367371,593.122925 
	C844.451294,596.291687 843.647644,596.968567 841.147583,597.110535 
	C839.666016,597.194824 838.172363,597.139954 836.687256,597.075928 
	C825.253723,596.582397 825.313538,596.246826 826.564880,584.661194 
	C827.213745,578.654114 826.202271,572.483215 826.187866,566.385742 
	C826.158936,554.124268 826.322815,541.862427 826.357483,529.600586 
	C826.370483,525.015137 826.071167,520.421265 826.280762,515.848022 
	C826.350952,514.317139 827.656189,511.535034 828.228638,511.577820 
	C830.013123,511.711090 832.426453,510.543671 833.568176,513.711182 
	C834.704285,516.862915 836.951599,519.614075 838.771729,522.640869 
	C843.015930,519.410889 846.866943,515.330200 851.596558,513.203552 
	C856.346008,511.068024 861.944214,510.652618 867.234680,510.027344 
	C868.304626,509.900940 870.691772,512.179688 870.725098,513.397400 
	C871.008301,523.730713 870.887024,534.075134 870.887024,544.989868 
	C859.347717,545.175476 863.310059,532.962402 855.833862,529.759155 
	C850.372986,531.164246 845.283020,537.237061 844.941040,544.129028 
	C844.761475,547.747620 844.559692,551.365051 844.485596,555.381348 
z"/>
<path fill="#A2A2A2" opacity="1.000000" stroke="none" 
	d="
M539.943176,486.254150 
	C541.246155,479.618805 543.851196,477.813019 550.443665,477.080688 
	C553.610413,476.728912 558.614136,478.914581 559.944214,483.941559 
	C561.068481,488.190674 562.041504,492.244232 557.825745,495.716888 
	C554.379700,498.555450 550.448730,499.744690 546.851257,497.641174 
	C542.985107,495.380615 539.012146,492.321381 539.943176,486.254150 
z"/>
<path fill="#A1A1A1" opacity="1.000000" stroke="none" 
	d="
M509.870697,477.931915 
	C520.007935,476.518951 526.252319,482.426544 524.013489,490.863342 
	C522.685669,495.867065 515.980591,500.012421 511.410004,498.655396 
	C505.614746,496.934723 501.896179,490.533844 504.139252,485.127716 
	C505.237823,482.480042 507.685211,480.391998 509.870697,477.931915 
z"/>
<path fill="#FDFCFD" opacity="1.000000" stroke="none" 
	d="
M426.895599,392.632202 
	C429.470612,391.575470 431.752441,390.211700 434.090088,390.108185 
	C440.317902,389.832367 444.587067,393.066071 448.674805,397.815308 
	C457.386200,407.936249 456.621582,418.895660 452.932709,430.282593 
	C450.675964,437.248749 446.787109,442.805969 439.054596,445.187469 
	C433.324432,446.952271 423.385986,441.885254 419.654755,435.367828 
	C416.259094,429.436523 415.502411,423.406616 415.132324,417.231598 
	C414.534729,407.260712 418.829895,399.139557 426.895599,392.632202 
z"/>
<path fill="#FDFDFD" opacity="1.000000" stroke="none" 
	d="
M663.896729,560.677368 
	C661.523010,566.304932 660.106750,572.413330 656.414124,576.428101 
	C653.360474,579.748169 647.627625,582.144653 643.065002,582.172302 
	C636.352783,582.213013 631.007324,578.063354 627.870483,571.536804 
	C623.784729,563.036011 623.491638,554.143188 624.662537,545.114380 
	C626.138428,533.733643 637.161499,525.213989 647.855469,528.009644 
	C651.992981,529.091309 656.058167,532.607727 658.894958,536.053345 
	C664.634888,543.025208 665.301697,551.541626 663.896729,560.677368 
z"/>
<path fill="#FDFCFD" opacity="1.000000" stroke="none" 
	d="
M153.115723,564.884888 
	C148.879425,578.034058 141.322678,583.862244 130.399521,582.988647 
	C124.486855,582.515869 115.259628,573.738342 115.211601,567.432129 
	C115.201958,566.166443 114.391251,564.906921 113.626945,562.720886 
	C113.527611,561.802368 113.089119,559.769165 113.125702,557.744568 
	C113.306618,547.732056 115.241463,538.522278 123.684631,531.683533 
	C128.745041,527.584778 137.898056,526.279114 143.003830,530.199524 
	C149.094177,534.875977 153.290985,541.054993 153.831070,548.846069 
	C154.189178,554.011902 153.349762,559.260742 153.115723,564.884888 
z"/>
<path fill="#FDFCFD" opacity="1.000000" stroke="none" 
	d="
M508.664246,552.550537 
	C509.426910,539.044495 514.473755,532.107056 526.585205,527.664673 
	C532.353088,525.549072 540.110229,528.644531 544.060120,533.378601 
	C547.765564,537.819702 550.433228,542.361755 551.925476,548.020447 
	C555.541443,561.732544 547.239990,581.173279 531.216187,582.725098 
	C524.868042,583.339966 516.540222,578.413391 513.217285,572.682983 
	C509.635834,566.506653 507.437714,560.178650 508.664246,552.550537 
z"/>
<path fill="#FBFBFB" opacity="1.000000" stroke="none" 
	d="
M757.830200,541.124023 
	C750.109436,541.036865 742.824646,541.036865 735.489319,541.036865 
	C736.712952,530.718323 747.971985,525.492310 760.402405,526.987122 
	C766.346741,527.701904 772.640564,535.291931 771.912109,541.211243 
	C767.392761,541.211243 762.829468,541.211243 757.830200,541.124023 
z"/>
<path fill="#FBFBFB" opacity="1.000000" stroke="none" 
	d="
M551.483093,389.944733 
	C557.836487,388.876038 565.852539,392.945892 568.274353,398.041504 
	C568.866455,399.287292 570.075073,400.240051 571.455505,401.862610 
	C569.549072,402.933075 567.926880,404.614105 566.268921,404.650177 
	C555.312134,404.888519 544.347656,404.773376 533.381165,404.773376 
	C533.563171,396.613464 541.806519,389.953491 551.483093,389.944733 
z"/>
<path fill="#FDFCFD" opacity="1.000000" stroke="none" 
	d="
M224.671005,576.357117 
	C217.606415,567.399902 216.441071,557.293518 218.188629,546.659363 
	C219.699448,537.465881 230.271042,527.639404 239.638763,527.850159 
	C245.253143,527.976501 250.512451,529.512390 254.600662,535.325073 
	C259.232269,541.910339 262.195984,548.429626 261.879547,556.253113 
	C261.517151,565.212402 258.086792,572.990051 251.356415,579.124756 
	C245.638504,584.336609 234.246033,584.253784 228.465561,579.031494 
	C227.392029,578.061646 226.148865,577.279663 224.671005,576.357117 
z"/>
<path fill="#FEFDFE" opacity="1.000000" stroke="none" 
	d="
M220.981171,374.982697 
	C220.855148,375.249725 220.676727,375.460297 220.498322,375.670898 
	C220.469879,375.425629 220.441422,375.180359 220.618561,374.874146 
	C220.824158,374.813232 220.928757,374.926270 220.981171,374.982697 
z"/>
</svg>