<?xml version="1.0" encoding="utf-8"?>
<!-- Generator: Adobe Illustrator 26.0.3, SVG Export Plug-In . SVG Version: 6.00 Build 0)  -->
<svg version="1.1" id="Layer_1" xmlns="http://www.w3.org/2000/svg" xmlns:xlink="http://www.w3.org/1999/xlink" x="0px" y="0px"
	 viewBox="0 0 380.6 91.9" style="enable-background:new 0 0 380.6 91.9;" xml:space="preserve">
<style type="text/css">
	.st0{fill:#3E3A93;}
	.st1{opacity:0.8;fill:url(#SVGID_1_);}
	.st2{opacity:0.8;fill:url(#SVGID_00000051350456472788801590000007058769370043748740_);}
	.st3{opacity:0.8;fill:url(#SVGID_00000054948922722522960300000013735576039786770096_);}
	.st4{opacity:0.8;fill:url(#SVGID_00000063611231691302897640000016194242605889108671_);}
	.st5{opacity:0.8;fill:url(#SVGID_00000170968970219292035370000015249550844840471178_);}
</style>
<g>
	<g>
		<path class="st0" d="M276,86.4l10.7-23.3c0.1-0.2,0.1-0.4,0.1-0.6V2c0-1.1-0.9-2-2-2H252c-0.6,0-1.2,0.4-1.4,1l-5.7,13.8
			c-0.4,1,0.3,2.1,1.4,2.1h20c1.1,0,2,0.9,2,2v43.4c0,5.6-3.8,11.2-10.8,11.8c-6.8,0.5-13.9-4.5-18.1-8.1l0,0
			c-0.7-0.8-2.1-0.6-2.5,0.4L231,78.7c-0.3,0.5-0.2,1.2,0.2,1.6l0.2,0.2c8.6,7.5,14.5,11.4,26.1,11.4c7.7,0,12.7-1.7,17.9-5
			C275.7,86.9,275.9,86.6,276,86.4z"/>
		<path class="st0" d="M64.1,15.7L69,2.8C69.5,1.4,68.6,0,67.2,0H8.6C7.8,0,7.1,0.5,6.8,1.3L0.1,17.7c0,0-0.1,0.4-0.1,0.6L0,89
			c0,2.1,0.9,3,2,3h15.5c1.1,0,2-0.9,2-2V56.7c0-1.1,0.9-2,2-2h25.8c0.8,0,1.6-0.5,1.9-1.3l5.2-12.8c0.5-1.3-0.4-2.7-1.9-2.7H21.5
			c-1.1,0-2-0.9-2-2V19c0-1.1,0.9-2,2-2h40.8C63.1,17,63.8,16.5,64.1,15.7z"/>
		<path class="st0" d="M227.2,15.8l5.6-12.9c0.6-1.3-0.4-2.8-1.8-2.8h-54.7c-0.8,0-1.6,0.5-1.9,1.3L167.3,19
			c-0.1,0.2-0.1,0.5-0.1,0.7V90c0,1.1,0.9,2,2,2h40.2c0.8,0,1.5-0.5,1.9-1.2l5.3-12.9c0.5-1.3-0.4-2.8-1.9-2.8h-26.9
			c-1.1,0-2-0.9-2-2V56.2c0-1.1,0.9-2,2-2h22.7c0.8,0,1.5-0.5,1.8-1.2l5.3-12.8c0.5-1.3-0.4-2.8-1.8-2.8h-28c-1.1,0-2-0.9-2-2V19
			c0-1.1,0.9-2,2-2h37.7C226.1,17,226.8,16.5,227.2,15.8z"/>
		<path class="st0" d="M149.7,85.9l-15.2-22.6c-0.7-1-0.3-2.3,0.7-2.9c10-5.5,15.5-15.4,15.5-28.5c0-20.3-13.7-32-37.5-32H84
			c-0.8,0-1.6,0.5-1.9,1.3l-5.6,15.2c-0.1,0.2-0.1,0.5-0.1,0.7V90c0,1.1,0.9,2,2,2h14.5c1.1,0,2-0.9,2-2V67.3c0-1.1,0.9-2,2-2h16.2
			c0.7,0,1.3,0,2,0c0.7,0,1.4,0.4,1.7,1l15,24.7c0.4,0.6,1,1,1.7,1H148c1.1,0,2-0.9,2-2v-2.9C150,86.7,149.9,86.3,149.7,85.9z
			 M113.1,48.4H96.9c-1.1,0-2-0.9-2-2V19c0-1.1,0.9-2,2-2h16.2c13.1,0,19.7,5.2,19.7,15.4C132.9,43,126.2,48.4,113.1,48.4z"/>
		<path class="st0" d="M380.4,73.5l-32-72.2c-0.3-0.7-1-1.2-1.8-1.2h-0.2c0,0,0,0,0,0h-15c-0.8,0-1.5,0.5-1.8,1.2l-38.9,87.9
			c-0.6,1.3,0.4,2.8,1.8,2.8h15.1c0.8,0,1.5-0.5,1.8-1.2l7.4-17.5c0.3-0.7,1-1.2,1.8-1.2h39.7c0.7,0,1.2,0.3,1.6,0.9l7,17.1l0.4,0.9
			l0.3,0.6c0.2,0.3,0.3,0.4,0.5,0.5l0,0h0c0.2,0,0.4,0,0.7,0h3.4c0.8,0,1.5-0.5,1.8-1.2l6.3-15.6C380.7,74.6,380.7,74,380.4,73.5z
			 M349.4,55.2h-22c-1.4,0-2.4-1.5-1.8-2.8l11-25.8c0.7-1.6,3-1.6,3.7,0l11,25.8C351.8,53.8,350.9,55.2,349.4,55.2z"/>
	</g>
	<linearGradient id="SVGID_1_" gradientUnits="userSpaceOnUse" x1="13.6689" y1="30.2873" x2="55.9583" y2="-12.0022">
		<stop  offset="0.4372" style="stop-color:#6C6CEA;stop-opacity:0.4"/>
		<stop  offset="0.5416" style="stop-color:#6767E1;stop-opacity:0.5113"/>
		<stop  offset="0.7089" style="stop-color:#5B5ACA;stop-opacity:0.6897"/>
		<stop  offset="0.9171" style="stop-color:#4744A4;stop-opacity:0.9116"/>
		<stop  offset="1" style="stop-color:#3E3A93"/>
	</linearGradient>
	<path class="st1" d="M67.2,0H8.6C7.8,0,7.1,0.5,6.8,1.3L0.4,17h20.7c0.1,0,0.3,0,0.4,0h40.8c0.8,0,1.6-0.5,1.9-1.3L69,2.8
		C69.5,1.4,68.6,0,67.2,0z"/>
	
		<linearGradient id="SVGID_00000134233167814834214520000000844108087613528746_" gradientUnits="userSpaceOnUse" x1="180.1785" y1="29.1399" x2="220.5072" y2="-11.1888">
		<stop  offset="0.2002" style="stop-color:#6C6CEA;stop-opacity:0.4"/>
		<stop  offset="0.3506" style="stop-color:#6767E1;stop-opacity:0.5128"/>
		<stop  offset="0.5978" style="stop-color:#5A59C8;stop-opacity:0.6983"/>
		<stop  offset="0.9095" style="stop-color:#4541A0;stop-opacity:0.9321"/>
		<stop  offset="1" style="stop-color:#3E3A93"/>
	</linearGradient>
	<path style="opacity:0.8;fill:url(#SVGID_00000134233167814834214520000000844108087613528746_);" d="M230.9,0h-54.6
		c-0.8,0-1.6,0.5-1.9,1.3L168.1,17h17.3c0.1,0,0.3,0,0.4,0h39.5c0.8,0,1.6-0.5,1.9-1.3l5.6-12.9C233.3,1.4,232.3,0,230.9,0z"/>
	
		<linearGradient id="SVGID_00000123418895135885521420000016123608751332598936_" gradientUnits="userSpaceOnUse" x1="87.0452" y1="-2.0062" x2="126.1539" y2="65.7321">
		<stop  offset="0.1036" style="stop-color:#6C6CEA;stop-opacity:0.4"/>
		<stop  offset="0.3689" style="stop-color:#5E5DCF;stop-opacity:0.5776"/>
		<stop  offset="1" style="stop-color:#3E3A93"/>
	</linearGradient>
	<path style="opacity:0.8;fill:url(#SVGID_00000123418895135885521420000016123608751332598936_);" d="M113.1,0H84
		c-0.8,0-1.6,0.5-1.9,1.3l-5.6,15.2c-0.1,0.2-0.1,0.3-0.1,0.5h20.3c0.1,0,0.1,0,0.2,0h16.2c13.1,0,19.7,5.2,19.7,15.4
		c0,10.6-6.6,16-19.7,16H96.9c-0.2,0-0.4,0-0.6-0.1H76.4v17h29.1v0c3.1,0,6.4-0.1,9.6-0.3c7.7-0.5,15.4-1.8,21.4-5.3
		c9.8-5.7,14.1-16.9,14.1-27.8C150.6,11.7,137,0,113.1,0z"/>
	
		<linearGradient id="SVGID_00000003084344293416377020000000321026783573479598_" gradientUnits="userSpaceOnUse" x1="244.7068" y1="8.5421" x2="286.9117" y2="8.5421">
		<stop  offset="0.146" style="stop-color:#6C6CEA;stop-opacity:0.4"/>
		<stop  offset="0.3749" style="stop-color:#6A6AE7;stop-opacity:0.5608"/>
		<stop  offset="0.5465" style="stop-color:#6565DD;stop-opacity:0.6814"/>
		<stop  offset="0.6995" style="stop-color:#5D5CCD;stop-opacity:0.7889"/>
		<stop  offset="0.8416" style="stop-color:#514EB7;stop-opacity:0.8887"/>
		<stop  offset="0.9749" style="stop-color:#413E99;stop-opacity:0.9824"/>
		<stop  offset="1" style="stop-color:#3E3A93"/>
	</linearGradient>
	<path style="opacity:0.8;fill:url(#SVGID_00000003084344293416377020000000321026783573479598_);" d="M266.7,17h20.2V2
		c0-1.1-0.9-2-2-2H252c-0.6,0-1.2,0.4-1.4,1l-5.7,13.8c-0.4,1,0.3,2.1,1.4,2.1h20C266.4,17,266.6,17,266.7,17z"/>
	
		<linearGradient id="SVGID_00000075860693491537419890000016225088973272499115_" gradientUnits="userSpaceOnUse" x1="290.4366" y1="46.0197" x2="347.674" y2="46.0197">
		<stop  offset="0" style="stop-color:#6C6CEA;stop-opacity:0.4"/>
		<stop  offset="0.5572" style="stop-color:#4F4DB4;stop-opacity:0.756"/>
		<stop  offset="0.939" style="stop-color:#3E3A93"/>
	</linearGradient>
	<path style="opacity:0.8;fill:url(#SVGID_00000075860693491537419890000016225088973272499115_);" d="M309.4,90.7l0.4-0.9
		l37.9-89.4c-0.4-0.2-0.8-0.3-1.3-0.3h-15c-0.8,0-1.5,0.5-1.8,1.2l-38.9,87.9c-0.6,1.3,0.4,2.8,1.8,2.8h15.1c0.7,0,1.3-0.4,1.7-1
		L309.4,90.7z"/>
</g>
</svg>
