<?xml version="1.0" encoding="utf-8"?>
<!-- Generator: Adobe Illustrator 26.0.3, SVG Export Plug-In . SVG Version: 6.00 Build 0)  -->
<svg version="1.1" id="Layer_1" xmlns="http://www.w3.org/2000/svg" xmlns:xlink="http://www.w3.org/1999/xlink" x="0px" y="0px"
	 viewBox="0 0 445.9 91.9" style="enable-background:new 0 0 445.9 91.9;" xml:space="preserve">
<style type="text/css">
	.st0{fill:#3E3A93;}
	.st1{opacity:0.4;fill:#3E3A93;}
	.st2{opacity:0.5;}
	.st3{fill:url(#SVGID_1_);}
	.st4{opacity:0.4;fill:url(#SVGID_00000045578831335845345310000018011123236578631323_);}
	.st5{opacity:0.8;fill:url(#SVGID_00000036974440198408348840000013056338755240134563_);}
	.st6{opacity:0.8;fill:url(#SVGID_00000132064433481316518180000000305596486415341236_);}
	.st7{opacity:0.8;fill:url(#SVGID_00000124876571514955847780000004894045868775734923_);}
	.st8{opacity:0.8;fill:url(#SVGID_00000094610856502677983590000013659150409037364390_);}
	.st9{opacity:0.8;fill:url(#SVGID_00000011722456511327386180000006346703541451086219_);}
</style>
<g>
	<g>
		<g>
			<path class="st0" d="M443.1,25.4h-21.3c-0.9,0-1.7-0.7-1.7-1.7v-21c0-1.5-1.2-2.8-2.8-2.8h-9.7c-1.5,0-2.8,1.2-2.8,2.8v21
				c0,0.9-0.7,1.7-1.7,1.7h-21.3c-1.5,0-2.8,1.2-2.8,2.8v9c0,1.5,1.2,2.8,2.8,2.8h21.3c0.9,0,1.7,0.7,1.7,1.7v20.9
				c0,1.5,1.2,2.8,2.8,2.8h9.7c1.5,0,2.8-1.2,2.8-2.8V41.6c0-0.9,0.7-1.7,1.7-1.7h21.3c1.5,0,2.8-1.2,2.8-2.8v-9
				C445.9,26.6,444.6,25.4,443.1,25.4z"/>
			<path class="st1" d="M443.1,25.4h-21.3c-0.9,0-1.7-0.7-1.7-1.7v-21c0-1.5-1.2-2.8-2.8-2.8h-9.7c-1.5,0-2.8,1.2-2.8,2.8v21
				c0,0.9-0.7,1.7-1.7,1.7h-21.3c-1.5,0-2.8,1.2-2.8,2.8v9c0,1.5,1.2,2.8,2.8,2.8h21.3c0.9,0,1.7,0.7,1.7,1.7v20.9
				c0,1.5,1.2,2.8,2.8,2.8h9.7c1.5,0,2.8-1.2,2.8-2.8V41.6c0-0.9,0.7-1.7,1.7-1.7h21.3c1.5,0,2.8-1.2,2.8-2.8v-9
				C445.9,26.6,444.6,25.4,443.1,25.4z"/>
		</g>
	</g>
	<g class="st2">
		<linearGradient id="SVGID_1_" gradientUnits="userSpaceOnUse" x1="379.1228" y1="32.5693" x2="445.8781" y2="32.5693">
			<stop  offset="0" style="stop-color:#6C6CEA;stop-opacity:0.4"/>
			<stop  offset="0.5572" style="stop-color:#4F4DB4;stop-opacity:0.756"/>
			<stop  offset="0.939" style="stop-color:#3E3A93"/>
		</linearGradient>
		<path class="st3" d="M443.1,25.4h-21.3c-0.9,0-1.7-0.7-1.7-1.7v-21c0-1.5-1.2-2.8-2.8-2.8h-9.7c-1.5,0-2.8,1.2-2.8,2.8v21
			c0,0.9-0.7,1.7-1.7,1.7h-21.3c-1.5,0-2.8,1.2-2.8,2.8v9c0,1.5,1.2,2.8,2.8,2.8h21.3c0.9,0,1.7,0.7,1.7,1.7v20.9
			c0,1.5,1.2,2.8,2.8,2.8h9.7c1.5,0,2.8-1.2,2.8-2.8V41.6c0-0.9,0.7-1.7,1.7-1.7h21.3c1.5,0,2.8-1.2,2.8-2.8v-9
			C445.9,26.6,444.6,25.4,443.1,25.4z"/>
		
			<linearGradient id="SVGID_00000155835867628564709920000015573413151408969118_" gradientUnits="userSpaceOnUse" x1="379.1228" y1="32.5693" x2="445.8781" y2="32.5693">
			<stop  offset="0" style="stop-color:#6C6CEA;stop-opacity:0.4"/>
			<stop  offset="0.5572" style="stop-color:#4F4DB4;stop-opacity:0.756"/>
			<stop  offset="0.939" style="stop-color:#3E3A93"/>
		</linearGradient>
		<path style="opacity:0.4;fill:url(#SVGID_00000155835867628564709920000015573413151408969118_);" d="M443.1,25.4h-21.3
			c-0.9,0-1.7-0.7-1.7-1.7v-21c0-1.5-1.2-2.8-2.8-2.8h-9.7c-1.5,0-2.8,1.2-2.8,2.8v21c0,0.9-0.7,1.7-1.7,1.7h-21.3
			c-1.5,0-2.8,1.2-2.8,2.8v9c0,1.5,1.2,2.8,2.8,2.8h21.3c0.9,0,1.7,0.7,1.7,1.7v20.9c0,1.5,1.2,2.8,2.8,2.8h9.7
			c1.5,0,2.8-1.2,2.8-2.8V41.6c0-0.9,0.7-1.7,1.7-1.7h21.3c1.5,0,2.8-1.2,2.8-2.8v-9C445.9,26.6,444.6,25.4,443.1,25.4z"/>
	</g>
	<g>
		<g>
			<path class="st0" d="M276,86.2l10.7-23.3c0.1-0.2,0.1-0.4,0.1-0.6V1.9c0-1.1-0.9-2-2-2H252c-0.6,0-1.2,0.4-1.4,1l-5.7,13.8
				c-0.4,1,0.3,2.1,1.4,2.1h20c1.1,0,2,0.9,2,2v43.4c0,5.6-3.8,11.2-10.8,11.8c-6.8,0.5-13.9-4.5-18.1-8.1l0,0
				c-0.7-0.8-2.1-0.6-2.5,0.4l-5.8,12.2c-0.3,0.5-0.2,1.2,0.2,1.6l0.2,0.2c8.6,7.5,14.5,11.4,26.1,11.4c7.7,0,12.7-1.7,17.9-5
				C275.7,86.7,275.9,86.4,276,86.2z"/>
			<path class="st0" d="M64.1,15.6l4.9-12.9c0.5-1.3-0.5-2.7-1.9-2.7H8.6c-0.8,0-1.6,0.5-1.9,1.3L0.1,17.6c0,0-0.1,0.4-0.1,0.6
				l0,70.7c0,2.1,0.9,3,2,3h15.5c1.1,0,2-0.9,2-2V56.6c0-1.1,0.9-2,2-2h25.8c0.8,0,1.6-0.5,1.9-1.3l5.2-12.8
				c0.5-1.3-0.4-2.7-1.9-2.7H21.5c-1.1,0-2-0.9-2-2V18.8c0-1.1,0.9-2,2-2h40.8C63.1,16.8,63.8,16.3,64.1,15.6z"/>
			<path class="st0" d="M227.2,15.6l5.6-12.9c0.6-1.3-0.4-2.8-1.8-2.8h-54.7c-0.8,0-1.6,0.5-1.9,1.3l-7.1,17.7
				c-0.1,0.2-0.1,0.5-0.1,0.7v70.2c0,1.1,0.9,2,2,2h40.2c0.8,0,1.5-0.5,1.9-1.2l5.3-12.9c0.5-1.3-0.4-2.8-1.9-2.8h-26.9
				c-1.1,0-2-0.9-2-2V56.1c0-1.1,0.9-2,2-2h22.7c0.8,0,1.5-0.5,1.8-1.2l5.3-12.8c0.5-1.3-0.4-2.8-1.8-2.8h-28c-1.1,0-2-0.9-2-2V18.8
				c0-1.1,0.9-2,2-2h37.7C226.1,16.8,226.8,16.4,227.2,15.6z"/>
			<path class="st0" d="M149.7,85.8l-15.2-22.6c-0.7-1-0.3-2.3,0.7-2.9c10-5.5,15.5-15.4,15.5-28.5c0-20.3-13.7-32-37.5-32H84
				c-0.8,0-1.6,0.5-1.9,1.3l-5.6,15.2c-0.1,0.2-0.1,0.5-0.1,0.7v72.8c0,1.1,0.9,2,2,2h14.5c1.1,0,2-0.9,2-2V67.2c0-1.1,0.9-2,2-2
				h16.2c0.7,0,1.3,0,2,0c0.7,0,1.4,0.4,1.7,1l15,24.7c0.4,0.6,1,1,1.7,1H148c1.1,0,2-0.9,2-2v-2.9C150,86.5,149.9,86.1,149.7,85.8z
				 M113.1,48.3H96.9c-1.1,0-2-0.9-2-2V18.8c0-1.1,0.9-2,2-2h16.2c13.1,0,19.7,5.2,19.7,15.4C132.9,42.9,126.2,48.3,113.1,48.3z"/>
			<path class="st0" d="M380.4,73.3l-32-72.2c-0.3-0.7-1-1.2-1.8-1.2h-0.2c0,0,0,0,0,0h-15c-0.8,0-1.5,0.5-1.8,1.2L290.6,89
				c-0.6,1.3,0.4,2.8,1.8,2.8h15.1c0.8,0,1.5-0.5,1.8-1.2l7.4-17.5c0.3-0.7,1-1.2,1.8-1.2h39.7c0.7,0,1.2,0.3,1.6,0.9l7,17.1
				l0.4,0.9l0.3,0.6c0.2,0.3,0.3,0.4,0.5,0.5l0,0h0c0.2,0,0.4,0,0.7,0h3.4c0.8,0,1.5-0.5,1.8-1.2l6.3-15.6
				C380.7,74.5,380.7,73.9,380.4,73.3z M349.4,55.1h-22c-1.4,0-2.4-1.5-1.8-2.8l11-25.8c0.7-1.6,3-1.6,3.7,0l11,25.8
				C351.9,53.6,350.9,55.1,349.4,55.1z"/>
		</g>
		
			<linearGradient id="SVGID_00000163777594245544767720000005088963699715221414_" gradientUnits="userSpaceOnUse" x1="13.6778" y1="30.1479" x2="55.9673" y2="-12.1416">
			<stop  offset="0.4372" style="stop-color:#6C6CEA;stop-opacity:0.4"/>
			<stop  offset="0.5416" style="stop-color:#6767E1;stop-opacity:0.5113"/>
			<stop  offset="0.7089" style="stop-color:#5B5ACA;stop-opacity:0.6897"/>
			<stop  offset="0.9171" style="stop-color:#4744A4;stop-opacity:0.9116"/>
			<stop  offset="1" style="stop-color:#3E3A93"/>
		</linearGradient>
		<path style="opacity:0.8;fill:url(#SVGID_00000163777594245544767720000005088963699715221414_);" d="M67.2-0.1H8.6
			c-0.8,0-1.6,0.5-1.9,1.3L0.4,16.9h20.7c0.1,0,0.3,0,0.4,0h40.8c0.8,0,1.6-0.5,1.9-1.3l4.9-12.9C69.6,1.3,68.6-0.1,67.2-0.1z"/>
		
			<linearGradient id="SVGID_00000038377365368874733610000013903612815152571566_" gradientUnits="userSpaceOnUse" x1="180.1874" y1="29.0004" x2="220.5161" y2="-11.3283">
			<stop  offset="0.2002" style="stop-color:#6C6CEA;stop-opacity:0.4"/>
			<stop  offset="0.3506" style="stop-color:#6767E1;stop-opacity:0.5128"/>
			<stop  offset="0.5978" style="stop-color:#5A59C8;stop-opacity:0.6983"/>
			<stop  offset="0.9095" style="stop-color:#4541A0;stop-opacity:0.9321"/>
			<stop  offset="1" style="stop-color:#3E3A93"/>
		</linearGradient>
		<path style="opacity:0.8;fill:url(#SVGID_00000038377365368874733610000013903612815152571566_);" d="M230.9-0.1h-54.6
			c-0.8,0-1.6,0.5-1.9,1.3l-6.3,15.7h17.3c0.1,0,0.3,0,0.4,0h39.5c0.8,0,1.6-0.5,1.9-1.3l5.6-12.9C233.3,1.3,232.3-0.1,230.9-0.1z"
			/>
		
			<linearGradient id="SVGID_00000072988973217829068440000012717077477732408207_" gradientUnits="userSpaceOnUse" x1="87.0541" y1="-2.1456" x2="126.1628" y2="65.5926">
			<stop  offset="0.1036" style="stop-color:#6C6CEA;stop-opacity:0.4"/>
			<stop  offset="0.3689" style="stop-color:#5E5DCF;stop-opacity:0.5776"/>
			<stop  offset="1" style="stop-color:#3E3A93"/>
		</linearGradient>
		<path style="opacity:0.8;fill:url(#SVGID_00000072988973217829068440000012717077477732408207_);" d="M113.1-0.1H84
			c-0.8,0-1.6,0.5-1.9,1.3l-5.6,15.2c-0.1,0.2-0.1,0.3-0.1,0.5h20.3c0.1,0,0.1,0,0.2,0h16.2c13.1,0,19.7,5.2,19.7,15.4
			c0,10.6-6.6,16-19.7,16H96.9c-0.2,0-0.4,0-0.6-0.1H76.4v17h29.1v0c3.1,0,6.4-0.1,9.6-0.3c7.7-0.5,15.4-1.8,21.4-5.3
			c9.8-5.7,14.1-16.9,14.1-27.8C150.6,11.6,137-0.1,113.1-0.1z"/>
		
			<linearGradient id="SVGID_00000166652778188882036930000000000877508647967625_" gradientUnits="userSpaceOnUse" x1="244.7158" y1="8.4027" x2="286.9207" y2="8.4027">
			<stop  offset="0.146" style="stop-color:#6C6CEA;stop-opacity:0.4"/>
			<stop  offset="0.3749" style="stop-color:#6A6AE7;stop-opacity:0.5608"/>
			<stop  offset="0.5465" style="stop-color:#6565DD;stop-opacity:0.6814"/>
			<stop  offset="0.6995" style="stop-color:#5D5CCD;stop-opacity:0.7889"/>
			<stop  offset="0.8416" style="stop-color:#514EB7;stop-opacity:0.8887"/>
			<stop  offset="0.9749" style="stop-color:#413E99;stop-opacity:0.9824"/>
			<stop  offset="1" style="stop-color:#3E3A93"/>
		</linearGradient>
		<path style="opacity:0.8;fill:url(#SVGID_00000166652778188882036930000000000877508647967625_);" d="M266.7,16.9h20.2v-15
			c0-1.1-0.9-2-2-2H252c-0.6,0-1.2,0.4-1.4,1l-5.7,13.8c-0.4,1,0.3,2.1,1.4,2.1h20C266.4,16.9,266.6,16.9,266.7,16.9z"/>
		
			<linearGradient id="SVGID_00000131365043494249068840000016270196323592682916_" gradientUnits="userSpaceOnUse" x1="290.4455" y1="45.8803" x2="347.6829" y2="45.8803">
			<stop  offset="0" style="stop-color:#6C6CEA;stop-opacity:0.4"/>
			<stop  offset="0.5572" style="stop-color:#4F4DB4;stop-opacity:0.756"/>
			<stop  offset="0.939" style="stop-color:#3E3A93"/>
		</linearGradient>
		<path style="opacity:0.8;fill:url(#SVGID_00000131365043494249068840000016270196323592682916_);" d="M309.4,90.6l0.4-0.9
			l37.9-89.4c-0.4-0.2-0.8-0.3-1.3-0.3h-15c-0.8,0-1.5,0.5-1.8,1.2L290.6,89c-0.6,1.3,0.4,2.8,1.8,2.8h15.1c0.7,0,1.3-0.4,1.7-1
			L309.4,90.6z"/>
	</g>
</g>
</svg>
